<?xml version="1.0" encoding="utf-8"?>
<!-- Generator: Adobe Illustrator 24.0.1, SVG Export Plug-In . SVG Version: 6.00 Build 0)  -->
<svg version="1.1" xmlns="http://www.w3.org/2000/svg" xmlns:xlink="http://www.w3.org/1999/xlink" x="0px" y="0px"
	 viewBox="0 0 841.9 595.3" style="enable-background:new 0 0 841.9 595.3;" xml:space="preserve">
<style type="text/css">
	.st0{clip-path:url(#SVGID_2_);fill:url(#SVGID_3_);}
	.st1{clip-path:url(#SVGID_5_);fill:url(#SVGID_6_);}
	.st2{clip-path:url(#SVGID_8_);fill:url(#SVGID_9_);}
	.st3{clip-path:url(#SVGID_11_);fill:url(#SVGID_12_);}
	.st4{clip-path:url(#SVGID_14_);fill:url(#SVGID_15_);}
	.st5{clip-path:url(#SVGID_17_);fill:url(#SVGID_18_);}
	.st6{clip-path:url(#SVGID_20_);fill:url(#SVGID_21_);}
	.st7{clip-path:url(#SVGID_23_);fill:url(#SVGID_24_);}
	.st8{clip-path:url(#SVGID_26_);fill:url(#SVGID_27_);}
	.st9{clip-path:url(#SVGID_29_);fill:url(#SVGID_30_);}
	.st10{clip-path:url(#SVGID_32_);fill:url(#SVGID_33_);}
	.st11{clip-path:url(#SVGID_35_);fill:url(#SVGID_36_);}
	.st12{clip-path:url(#SVGID_38_);fill:url(#SVGID_39_);}
	.st13{clip-path:url(#SVGID_41_);fill:url(#SVGID_42_);}
	.st14{clip-path:url(#SVGID_44_);fill:url(#SVGID_45_);}
	.st15{clip-path:url(#SVGID_47_);fill:url(#SVGID_48_);}
	.st16{clip-path:url(#SVGID_50_);fill:url(#SVGID_51_);}
	.st17{clip-path:url(#SVGID_53_);fill:url(#SVGID_54_);}
	.st18{clip-path:url(#SVGID_56_);fill:url(#SVGID_57_);}
	.st19{clip-path:url(#SVGID_59_);fill:url(#SVGID_60_);}
	.st20{clip-path:url(#SVGID_62_);fill:url(#SVGID_63_);}
	.st21{clip-path:url(#SVGID_65_);fill:url(#SVGID_66_);}
	.st22{clip-path:url(#SVGID_68_);fill:url(#SVGID_69_);}
	.st23{clip-path:url(#SVGID_71_);fill:url(#SVGID_72_);}
	.st24{clip-path:url(#SVGID_74_);fill:url(#SVGID_75_);}
	.st25{clip-path:url(#SVGID_77_);fill:url(#SVGID_78_);}
	.st26{clip-path:url(#SVGID_80_);fill:url(#SVGID_81_);}
	.st27{clip-path:url(#SVGID_83_);fill:url(#SVGID_84_);}
	.st28{clip-path:url(#SVGID_86_);fill:url(#SVGID_87_);}
	.st29{clip-path:url(#SVGID_89_);fill:url(#SVGID_90_);}
	.st30{clip-path:url(#SVGID_92_);fill:#010202;}
	.st31{clip-path:url(#SVGID_94_);fill:#010202;}
	.st32{clip-path:url(#SVGID_96_);fill:#010202;}
	.st33{clip-path:url(#SVGID_98_);fill:#010202;}
	.st34{clip-path:url(#SVGID_100_);fill:#010202;}
	.st35{clip-path:url(#SVGID_102_);fill:#010202;}
	.st36{clip-path:url(#SVGID_104_);fill:#010202;}
	.st37{clip-path:url(#SVGID_106_);fill:#010202;}
	.st38{clip-path:url(#SVGID_108_);fill:#010202;}
	.st39{clip-path:url(#SVGID_110_);fill:#010202;}
	.st40{clip-path:url(#SVGID_112_);fill:#010202;}
	.st41{clip-path:url(#SVGID_114_);fill:#010202;}
	.st42{clip-path:url(#SVGID_116_);fill:#010202;}
	.st43{clip-path:url(#SVGID_118_);fill:#010202;}
	.st44{clip-path:url(#SVGID_120_);fill:#010202;}
	.st45{clip-path:url(#SVGID_122_);fill:#010202;}
	.st46{clip-path:url(#SVGID_124_);fill:#010202;}
	.st47{clip-path:url(#SVGID_126_);fill:#010202;}
	.st48{clip-path:url(#SVGID_128_);fill:#010202;}
	.st49{clip-path:url(#SVGID_130_);fill:#010202;}
	.st50{clip-path:url(#SVGID_132_);fill:#010202;}
	.st51{clip-path:url(#SVGID_134_);fill:#010202;}
	.st52{clip-path:url(#SVGID_136_);fill:#010202;}
	.st53{clip-path:url(#SVGID_138_);fill:#010202;}
	.st54{clip-path:url(#SVGID_140_);fill:#010202;}
	.st55{clip-path:url(#SVGID_142_);fill:#010202;}
	.st56{clip-path:url(#SVGID_144_);fill:#010202;}
	.st57{clip-path:url(#SVGID_146_);fill:#010202;}
	.st58{clip-path:url(#SVGID_148_);fill:#010202;}
	.st59{clip-path:url(#SVGID_150_);fill:#010202;}
	.st60{clip-path:url(#SVGID_152_);fill:url(#SVGID_153_);}
	.st61{clip-path:url(#SVGID_155_);fill:url(#SVGID_156_);}
	.st62{clip-path:url(#SVGID_158_);fill:url(#SVGID_159_);}
	.st63{clip-path:url(#SVGID_161_);fill:url(#SVGID_162_);}
	.st64{clip-path:url(#SVGID_164_);fill:url(#SVGID_165_);}
	.st65{clip-path:url(#SVGID_167_);fill:url(#SVGID_168_);}
	.st66{clip-path:url(#SVGID_170_);fill:url(#SVGID_171_);}
	.st67{clip-path:url(#SVGID_173_);fill:url(#SVGID_174_);}
	.st68{clip-path:url(#SVGID_176_);fill:url(#SVGID_177_);}
	.st69{clip-path:url(#SVGID_179_);fill:url(#SVGID_180_);}
	.st70{clip-path:url(#SVGID_182_);fill:url(#SVGID_183_);}
	.st71{clip-path:url(#SVGID_185_);fill:url(#SVGID_186_);}
	.st72{clip-path:url(#SVGID_188_);fill:url(#SVGID_189_);}
	.st73{clip-path:url(#SVGID_191_);fill:url(#SVGID_192_);}
	.st74{clip-path:url(#SVGID_194_);fill:url(#SVGID_195_);}
	.st75{clip-path:url(#SVGID_197_);fill:url(#SVGID_198_);}
	.st76{clip-path:url(#SVGID_200_);fill:url(#SVGID_201_);}
	.st77{clip-path:url(#SVGID_203_);fill:url(#SVGID_204_);}
	.st78{clip-path:url(#SVGID_206_);fill:url(#SVGID_207_);}
	.st79{clip-path:url(#SVGID_209_);fill:url(#SVGID_210_);}
	.st80{clip-path:url(#SVGID_212_);fill:url(#SVGID_213_);}
	.st81{clip-path:url(#SVGID_215_);fill:url(#SVGID_216_);}
	.st82{clip-path:url(#SVGID_218_);fill:url(#SVGID_219_);}
	.st83{clip-path:url(#SVGID_221_);fill:url(#SVGID_222_);}
	.st84{clip-path:url(#SVGID_224_);fill:url(#SVGID_225_);}
	.st85{clip-path:url(#SVGID_227_);fill:url(#SVGID_228_);}
	.st86{clip-path:url(#SVGID_230_);fill:url(#SVGID_231_);}
	.st87{clip-path:url(#SVGID_233_);fill:url(#SVGID_234_);}
	.st88{clip-path:url(#SVGID_236_);fill:url(#SVGID_237_);}
	.st89{clip-path:url(#SVGID_239_);fill:url(#SVGID_240_);}
	.st90{clip-path:url(#SVGID_242_);fill:url(#SVGID_243_);}
	.st91{clip-path:url(#SVGID_245_);fill:url(#SVGID_246_);}
	.st92{clip-path:url(#SVGID_248_);fill:url(#SVGID_249_);}
	.st93{clip-path:url(#SVGID_251_);fill:url(#SVGID_252_);}
	.st94{clip-path:url(#SVGID_254_);fill:url(#SVGID_255_);}
	.st95{clip-path:url(#SVGID_257_);fill:url(#SVGID_258_);}
	.st96{clip-path:url(#SVGID_260_);fill:url(#SVGID_261_);}
	.st97{clip-path:url(#SVGID_263_);fill:url(#SVGID_264_);}
	.st98{clip-path:url(#SVGID_266_);fill:url(#SVGID_267_);}
	.st99{clip-path:url(#SVGID_269_);}
	.st100{fill:url(#SVGID_270_);}
	.st101{clip-path:url(#SVGID_272_);fill:url(#SVGID_273_);}
	.st102{clip-path:url(#SVGID_275_);fill:url(#SVGID_276_);}
	.st103{clip-path:url(#SVGID_278_);fill:url(#SVGID_279_);}
	.st104{clip-path:url(#SVGID_281_);fill:url(#SVGID_282_);}
	.st105{clip-path:url(#SVGID_284_);fill:url(#SVGID_285_);}
	.st106{clip-path:url(#SVGID_287_);fill:url(#SVGID_288_);}
	.st107{clip-path:url(#SVGID_290_);fill:url(#SVGID_291_);}
	.st108{clip-path:url(#SVGID_293_);fill:url(#SVGID_294_);}
	.st109{clip-path:url(#SVGID_296_);fill:url(#SVGID_297_);}
	.st110{clip-path:url(#SVGID_299_);fill:url(#SVGID_300_);}
	.st111{clip-path:url(#SVGID_302_);fill:url(#SVGID_303_);}
	.st112{clip-path:url(#SVGID_305_);fill:url(#SVGID_306_);}
	.st113{clip-path:url(#SVGID_308_);fill:url(#SVGID_309_);}
	.st114{clip-path:url(#SVGID_311_);fill:url(#SVGID_312_);}
	.st115{clip-path:url(#SVGID_314_);fill:url(#SVGID_315_);}
	.st116{clip-path:url(#SVGID_317_);fill:url(#SVGID_318_);}
	.st117{fill:#010202;}
	.st118{fill:none;stroke:#010202;stroke-width:1.5;stroke-linecap:round;stroke-linejoin:round;stroke-miterlimit:10;}
	.st119{fill:#FFFFFF;}
	.st120{fill:none;stroke:#FFFFFF;stroke-width:1.5;stroke-linecap:round;stroke-linejoin:round;stroke-miterlimit:10;}
	.st121{display:none;}
	.st122{display:inline;}
	.st123{fill-rule:evenodd;clip-rule:evenodd;fill:#010202;}
</style>
<g id="Слой_1">
	<g>
		<g>
			<defs>
				<rect id="SVGID_1_" x="99.3" y="120" width="9.1" height="283.7"/>
			</defs>
			<clipPath id="SVGID_2_">
				<use xlink:href="#SVGID_1_"  style="overflow:visible;"/>
			</clipPath>
			
				<radialGradient id="SVGID_3_" cx="431.7529" cy="596.0427" r="1" gradientTransform="matrix(1373.73 349.806 157.137 -617.095 -686710.25 216901.5781)" gradientUnits="userSpaceOnUse">
				<stop  offset="0" style="stop-color:#FED57F"/>
				<stop  offset="0.1813" style="stop-color:#C29613"/>
				<stop  offset="0.3263" style="stop-color:#E4C382"/>
				<stop  offset="0.5156" style="stop-color:#A37414"/>
				<stop  offset="0.694" style="stop-color:#BB8E2A"/>
				<stop  offset="0.8708" style="stop-color:#AE781C"/>
				<stop  offset="1" style="stop-color:#FECE6A"/>
			</radialGradient>
			<polygon class="st0" points="99.8,117.9 176.2,137.3 107.8,405.9 31.4,386.5 			"/>
		</g>
		<g>
			<defs>
				<polygon id="SVGID_4_" points="160.4,119.3 131.1,119.3 131.1,128.4 141.2,128.4 141.2,403.8 150.3,403.8 150.3,128.4 
					160.4,128.4 				"/>
			</defs>
			<clipPath id="SVGID_5_">
				<use xlink:href="#SVGID_4_"  style="overflow:visible;"/>
			</clipPath>
			
				<radialGradient id="SVGID_6_" cx="431.7529" cy="596.0427" r="1" gradientTransform="matrix(1373.73 349.806 157.137 -617.095 -686710.25 216901.5781)" gradientUnits="userSpaceOnUse">
				<stop  offset="0" style="stop-color:#FED57F"/>
				<stop  offset="0.1813" style="stop-color:#C29613"/>
				<stop  offset="0.3263" style="stop-color:#E4C382"/>
				<stop  offset="0.5156" style="stop-color:#A37414"/>
				<stop  offset="0.694" style="stop-color:#BB8E2A"/>
				<stop  offset="0.8708" style="stop-color:#AE781C"/>
				<stop  offset="1" style="stop-color:#FECE6A"/>
			</radialGradient>
			<polygon class="st1" points="132.9,112.3 228.5,136.7 158.7,410.8 63.1,386.4 			"/>
		</g>
		<g>
			<defs>
				<rect id="SVGID_7_" x="183.2" y="254.9" width="59.8" height="9.1"/>
			</defs>
			<clipPath id="SVGID_8_">
				<use xlink:href="#SVGID_7_"  style="overflow:visible;"/>
			</clipPath>
			
				<radialGradient id="SVGID_9_" cx="431.7529" cy="596.0427" r="1" gradientTransform="matrix(1373.73 349.806 157.137 -617.095 -686710.25 216901.5781)" gradientUnits="userSpaceOnUse">
				<stop  offset="0" style="stop-color:#FED57F"/>
				<stop  offset="0.1813" style="stop-color:#C29613"/>
				<stop  offset="0.3263" style="stop-color:#E4C382"/>
				<stop  offset="0.5156" style="stop-color:#A37414"/>
				<stop  offset="0.694" style="stop-color:#BB8E2A"/>
				<stop  offset="0.8708" style="stop-color:#AE781C"/>
				<stop  offset="1" style="stop-color:#FECE6A"/>
			</radialGradient>
			<polygon class="st2" points="186.8,240.6 245.1,255.5 239.3,278.3 181,263.4 			"/>
		</g>
		<g>
			<defs>
				<path id="SVGID_10_" d="M286.9,199.4h9.1v-68.8c0-7.3-5.9-13.6-13.6-13.6c-7.3,0-13.3,6.3-13.3,13.6v121.3
					c0,7.3,5.9,13.6,13.3,13.6c2.8,0,4.5,2.1,4.5,4.5v119.5c0,2.4-1.7,4.5-4.5,4.5c-2.4,0-4.2-2.1-4.2-4.5v-63.6h-9.1v63.6
					c0,7.7,5.9,13.6,13.3,13.6c7.7,0,13.6-5.9,13.6-13.6V269.9c0-7.3-5.9-13.6-13.3-13.6c-2.8,0-4.5-2.1-4.5-4.5V130.5
					c0-2.4,1.7-4.5,4.2-4.5c2.8,0,4.5,2.1,4.5,4.5V199.4z"/>
			</defs>
			<clipPath id="SVGID_11_">
				<use xlink:href="#SVGID_10_"  style="overflow:visible;"/>
			</clipPath>
			
				<radialGradient id="SVGID_12_" cx="431.7529" cy="596.0427" r="1" gradientTransform="matrix(1373.73 349.806 157.137 -617.095 -686710.25 216901.5781)" gradientUnits="userSpaceOnUse">
				<stop  offset="0" style="stop-color:#FED57F"/>
				<stop  offset="0.1813" style="stop-color:#C29613"/>
				<stop  offset="0.3263" style="stop-color:#E4C382"/>
				<stop  offset="0.5156" style="stop-color:#A37414"/>
				<stop  offset="0.694" style="stop-color:#BB8E2A"/>
				<stop  offset="0.8708" style="stop-color:#AE781C"/>
				<stop  offset="1" style="stop-color:#FECE6A"/>
			</radialGradient>
			<polygon class="st3" points="270.8,110.5 364.5,134.3 294.4,409.5 200.7,385.6 			"/>
		</g>
		<g>
			<defs>
				<polygon id="SVGID_13_" points="339,261.5 353.3,119.3 344.2,119.3 331.3,250.7 331.3,119.3 322.2,119.3 322.2,403.8 
					331.3,403.8 331.3,272 344.2,403.8 353.3,403.8 				"/>
			</defs>
			<clipPath id="SVGID_14_">
				<use xlink:href="#SVGID_13_"  style="overflow:visible;"/>
			</clipPath>
			
				<radialGradient id="SVGID_15_" cx="431.7529" cy="596.0427" r="1" gradientTransform="matrix(1373.73 349.806 157.137 -617.095 -686710.25 216901.5781)" gradientUnits="userSpaceOnUse">
				<stop  offset="0" style="stop-color:#FED57F"/>
				<stop  offset="0.1813" style="stop-color:#C29613"/>
				<stop  offset="0.3263" style="stop-color:#E4C382"/>
				<stop  offset="0.5156" style="stop-color:#A37414"/>
				<stop  offset="0.694" style="stop-color:#BB8E2A"/>
				<stop  offset="0.8708" style="stop-color:#AE781C"/>
				<stop  offset="1" style="stop-color:#FECE6A"/>
			</radialGradient>
			<polygon class="st4" points="324.1,111.9 421.3,136.7 351.4,411.2 254.2,386.4 			"/>
		</g>
		<g>
			<defs>
				<rect id="SVGID_16_" x="377.8" y="120" width="9.1" height="283.7"/>
			</defs>
			<clipPath id="SVGID_17_">
				<use xlink:href="#SVGID_16_"  style="overflow:visible;"/>
			</clipPath>
			
				<radialGradient id="SVGID_18_" cx="431.7529" cy="596.0427" r="1" gradientTransform="matrix(1373.73 349.806 157.137 -617.095 -686710.25 216901.5781)" gradientUnits="userSpaceOnUse">
				<stop  offset="0" style="stop-color:#FED57F"/>
				<stop  offset="0.1813" style="stop-color:#C29613"/>
				<stop  offset="0.3263" style="stop-color:#E4C382"/>
				<stop  offset="0.5156" style="stop-color:#A37414"/>
				<stop  offset="0.694" style="stop-color:#BB8E2A"/>
				<stop  offset="0.8708" style="stop-color:#AE781C"/>
				<stop  offset="1" style="stop-color:#FECE6A"/>
			</radialGradient>
			<polygon class="st5" points="378.3,117.9 454.7,137.3 386.3,405.9 309.9,386.5 			"/>
		</g>
		<g>
			<defs>
				<polygon id="SVGID_19_" points="440,394.7 423.9,394.7 423.9,119.7 414.8,119.7 414.8,403.8 440,403.8 				"/>
			</defs>
			<clipPath id="SVGID_20_">
				<use xlink:href="#SVGID_19_"  style="overflow:visible;"/>
			</clipPath>
			
				<radialGradient id="SVGID_21_" cx="431.7529" cy="596.0427" r="1" gradientTransform="matrix(1373.73 349.806 157.137 -617.095 -686710.25 216901.5781)" gradientUnits="userSpaceOnUse">
				<stop  offset="0" style="stop-color:#FED57F"/>
				<stop  offset="0.1813" style="stop-color:#C29613"/>
				<stop  offset="0.3263" style="stop-color:#E4C382"/>
				<stop  offset="0.5156" style="stop-color:#A37414"/>
				<stop  offset="0.694" style="stop-color:#BB8E2A"/>
				<stop  offset="0.8708" style="stop-color:#AE781C"/>
				<stop  offset="1" style="stop-color:#FECE6A"/>
			</radialGradient>
			<polygon class="st6" points="416.4,113.7 507.9,137 438.5,409.8 346.9,386.5 			"/>
		</g>
		<g>
			<defs>
				<polygon id="SVGID_22_" points="486.1,394.7 470,394.7 470,119.7 461,119.7 461,403.8 486.1,403.8 				"/>
			</defs>
			<clipPath id="SVGID_23_">
				<use xlink:href="#SVGID_22_"  style="overflow:visible;"/>
			</clipPath>
			
				<radialGradient id="SVGID_24_" cx="431.7529" cy="596.0427" r="1" gradientTransform="matrix(1373.73 349.806 157.137 -617.095 -686710.25 216901.5781)" gradientUnits="userSpaceOnUse">
				<stop  offset="0" style="stop-color:#FED57F"/>
				<stop  offset="0.1813" style="stop-color:#C29613"/>
				<stop  offset="0.3263" style="stop-color:#E4C382"/>
				<stop  offset="0.5156" style="stop-color:#A37414"/>
				<stop  offset="0.694" style="stop-color:#BB8E2A"/>
				<stop  offset="0.8708" style="stop-color:#AE781C"/>
				<stop  offset="1" style="stop-color:#FECE6A"/>
			</radialGradient>
			<polygon class="st7" points="462.5,113.7 554,137 484.6,409.8 393,386.5 			"/>
		</g>
		<g>
			<defs>
				<path id="SVGID_25_" d="M524.9,199.4h9.1v-68.8c0-7.3-5.9-13.6-13.6-13.6c-7.3,0-13.3,6.3-13.3,13.6v121.3
					c0,7.3,5.9,13.6,13.3,13.6c2.8,0,4.5,2.1,4.5,4.5v119.5c0,2.4-1.7,4.5-4.5,4.5c-2.4,0-4.2-2.1-4.2-4.5v-63.6h-9.1v63.6
					c0,7.7,5.9,13.6,13.3,13.6c7.7,0,13.6-5.9,13.6-13.6V269.9c0-7.3-5.9-13.6-13.3-13.6c-2.8,0-4.5-2.1-4.5-4.5V130.5
					c0-2.4,1.7-4.5,4.2-4.5c2.8,0,4.5,2.1,4.5,4.5V199.4z"/>
			</defs>
			<clipPath id="SVGID_26_">
				<use xlink:href="#SVGID_25_"  style="overflow:visible;"/>
			</clipPath>
			
				<radialGradient id="SVGID_27_" cx="431.7529" cy="596.0427" r="1" gradientTransform="matrix(1373.73 349.806 157.137 -617.095 -686710.25 216901.5781)" gradientUnits="userSpaceOnUse">
				<stop  offset="0" style="stop-color:#FED57F"/>
				<stop  offset="0.1813" style="stop-color:#C29613"/>
				<stop  offset="0.3263" style="stop-color:#E4C382"/>
				<stop  offset="0.5156" style="stop-color:#A37414"/>
				<stop  offset="0.694" style="stop-color:#BB8E2A"/>
				<stop  offset="0.8708" style="stop-color:#AE781C"/>
				<stop  offset="1" style="stop-color:#FECE6A"/>
			</radialGradient>
			<polygon class="st8" points="508.7,110.5 602.4,134.3 532.3,409.5 438.6,385.6 			"/>
		</g>
		<g>
			<defs>
				<circle id="SVGID_28_" cx="570" cy="393.3" r="9.8"/>
			</defs>
			<clipPath id="SVGID_29_">
				<use xlink:href="#SVGID_28_"  style="overflow:visible;"/>
			</clipPath>
			
				<radialGradient id="SVGID_30_" cx="431.7529" cy="596.0427" r="1" gradientTransform="matrix(1373.73 349.806 157.137 -617.095 -686710.25 216901.5781)" gradientUnits="userSpaceOnUse">
				<stop  offset="0" style="stop-color:#FED57F"/>
				<stop  offset="0.1813" style="stop-color:#C29613"/>
				<stop  offset="0.3263" style="stop-color:#E4C382"/>
				<stop  offset="0.5156" style="stop-color:#A37414"/>
				<stop  offset="0.694" style="stop-color:#BB8E2A"/>
				<stop  offset="0.8708" style="stop-color:#AE781C"/>
				<stop  offset="1" style="stop-color:#FECE6A"/>
			</radialGradient>
			<polygon class="st9" points="561.4,378.8 584.4,384.7 578.6,407.7 555.5,401.9 			"/>
		</g>
		<g>
			<defs>
				<path id="SVGID_31_" d="M625.5,252.5c0,3.8-3.1,7-7,7h-1.7v-131h4.5c2.4,0,4.2,2.1,4.2,4.5V252.5z M621,119.3h-13.3v284.4h9.1
					V268.5h1.7c8.7,0,16.1-7.3,16.1-16.1V133C634.6,125.6,628.7,119.3,621,119.3z"/>
			</defs>
			<clipPath id="SVGID_32_">
				<use xlink:href="#SVGID_31_"  style="overflow:visible;"/>
			</clipPath>
			
				<radialGradient id="SVGID_33_" cx="431.753" cy="596.0427" r="0.9999" gradientTransform="matrix(1373.73 349.806 157.137 -617.095 -686710.25 216901.5781)" gradientUnits="userSpaceOnUse">
				<stop  offset="0" style="stop-color:#FED57F"/>
				<stop  offset="0.1813" style="stop-color:#C29613"/>
				<stop  offset="0.3263" style="stop-color:#E4C382"/>
				<stop  offset="0.5156" style="stop-color:#A37414"/>
				<stop  offset="0.694" style="stop-color:#BB8E2A"/>
				<stop  offset="0.8708" style="stop-color:#AE781C"/>
				<stop  offset="1" style="stop-color:#FECE6A"/>
			</radialGradient>
			<polygon class="st10" points="609.4,112.9 702.6,136.7 633,410.2 539.7,386.4 			"/>
		</g>
		<g>
			<defs>
				<path id="SVGID_34_" d="M678.6,252.8c0,3.8-3.1,7-7,7h-1.7v-131h4.5c2.4,0,4.2,2.1,4.2,4.5V252.8z M687.7,133.3
					c0-7.3-5.9-13.6-13.6-13.6h-13.3v284.1h9.1V269.2h4.2c2.8,0,4.5,1.7,4.5,4.5v130h9.1v-130c0-4.2-1.7-7.7-4.2-10.1
					c2.4-2.8,4.2-6.6,4.2-10.8V133.3z"/>
			</defs>
			<clipPath id="SVGID_35_">
				<use xlink:href="#SVGID_34_"  style="overflow:visible;"/>
			</clipPath>
			
				<radialGradient id="SVGID_36_" cx="431.7529" cy="596.0427" r="1" gradientTransform="matrix(1373.73 349.806 157.137 -617.095 -686710.25 216901.5781)" gradientUnits="userSpaceOnUse">
				<stop  offset="0" style="stop-color:#FED57F"/>
				<stop  offset="0.1813" style="stop-color:#C29613"/>
				<stop  offset="0.3263" style="stop-color:#E4C382"/>
				<stop  offset="0.5156" style="stop-color:#A37414"/>
				<stop  offset="0.694" style="stop-color:#BB8E2A"/>
				<stop  offset="0.8708" style="stop-color:#AE781C"/>
				<stop  offset="1" style="stop-color:#FECE6A"/>
			</radialGradient>
			<polygon class="st11" points="662.5,113.2 755.7,137 686.1,410.2 592.9,386.5 			"/>
		</g>
		<g>
			<defs>
				<path id="SVGID_37_" d="M733.5,130.2v262.1c0,2.4-1.7,4.5-4.5,4.5c-2.4,0-4.2-2.1-4.2-4.5V130.2c0-2.4,1.7-4.5,4.2-4.5
					C731.8,125.6,733.5,127.7,733.5,130.2z M729,116.5c-7.3,0-13.3,6.3-13.3,13.6v262.1c0,7.3,5.9,13.3,13.3,13.3
					c7.7,0,13.6-5.9,13.6-13.3V130.2C742.6,122.8,736.7,116.5,729,116.5z"/>
			</defs>
			<clipPath id="SVGID_38_">
				<use xlink:href="#SVGID_37_"  style="overflow:visible;"/>
			</clipPath>
			
				<radialGradient id="SVGID_39_" cx="431.7529" cy="596.0427" r="1" gradientTransform="matrix(1373.73 349.806 157.137 -617.095 -686710.25 216901.5781)" gradientUnits="userSpaceOnUse">
				<stop  offset="0" style="stop-color:#FED57F"/>
				<stop  offset="0.1813" style="stop-color:#C29613"/>
				<stop  offset="0.3263" style="stop-color:#E4C382"/>
				<stop  offset="0.5156" style="stop-color:#A37414"/>
				<stop  offset="0.694" style="stop-color:#BB8E2A"/>
				<stop  offset="0.8708" style="stop-color:#AE781C"/>
				<stop  offset="1" style="stop-color:#FECE6A"/>
			</radialGradient>
			<polygon class="st12" points="717.3,110.1 811.7,134.1 741,411.9 646.6,387.9 			"/>
		</g>
		<g>
			<defs>
				<path id="SVGID_40_" d="M123.7,474.6c-2.7,2.8-6.1,4.1-10.2,4.1c-4.1,0-7.5-1.4-10.2-4.1c-2.7-2.8-4-6.3-4-10.3
					c0-4.1,1.3-7.5,4-10.3c2.7-2.8,6.1-4.2,10.2-4.2c4.1,0,7.5,1.4,10.2,4.2c2.7,2.8,4.1,6.2,4.1,10.3S126.4,471.8,123.7,474.6z
					 M106.6,471.7c1.9,2,4.2,2.9,6.9,2.9c2.7,0,5-1,6.9-2.9c1.9-2,2.8-4.5,2.8-7.4c0-2.9-0.9-5.4-2.8-7.4c-1.9-2-4.2-3-6.9-3
					c-2.7,0-5,1-6.9,3c-1.9,1.9-2.8,4.4-2.8,7.4S104.7,469.7,106.6,471.7z"/>
			</defs>
			<clipPath id="SVGID_41_">
				<use xlink:href="#SVGID_40_"  style="overflow:visible;"/>
			</clipPath>
			
				<radialGradient id="SVGID_42_" cx="431.1407" cy="596.2832" r="1" gradientTransform="matrix(388.248 3.2487 3.2487 -388.248 -169227.8906 230569.4531)" gradientUnits="userSpaceOnUse">
				<stop  offset="0" style="stop-color:#FED57F"/>
				<stop  offset="0.1813" style="stop-color:#C29613"/>
				<stop  offset="0.3263" style="stop-color:#E4C382"/>
				<stop  offset="0.5156" style="stop-color:#A37414"/>
				<stop  offset="0.694" style="stop-color:#BB8E2A"/>
				<stop  offset="0.8708" style="stop-color:#AE781C"/>
				<stop  offset="1" style="stop-color:#FECE6A"/>
			</radialGradient>
			<polygon class="st13" points="99.3,449.6 128,449.8 127.8,479 99.1,478.7 			"/>
		</g>
		<g>
			<defs>
				<polygon id="SVGID_43_" points="146.1,478.2 141.7,478.2 141.7,450.3 146.1,450.3 146.1,461.3 160.6,461.3 160.6,450.3 
					165,450.3 165,478.2 160.6,478.2 160.6,465.4 146.1,465.4 				"/>
			</defs>
			<clipPath id="SVGID_44_">
				<use xlink:href="#SVGID_43_"  style="overflow:visible;"/>
			</clipPath>
			
				<radialGradient id="SVGID_45_" cx="431.1407" cy="596.2832" r="1" gradientTransform="matrix(388.248 3.2487 3.2487 -388.248 -169227.8906 230569.4531)" gradientUnits="userSpaceOnUse">
				<stop  offset="0" style="stop-color:#FED57F"/>
				<stop  offset="0.1813" style="stop-color:#C29613"/>
				<stop  offset="0.3263" style="stop-color:#E4C382"/>
				<stop  offset="0.5156" style="stop-color:#A37414"/>
				<stop  offset="0.694" style="stop-color:#BB8E2A"/>
				<stop  offset="0.8708" style="stop-color:#AE781C"/>
				<stop  offset="1" style="stop-color:#FECE6A"/>
			</radialGradient>
			<polygon class="st14" points="141.7,450.1 165.2,450.3 165,478.4 141.5,478.2 			"/>
		</g>
		<g>
			<defs>
				<path id="SVGID_46_" d="M176.8,478.1v-4c0.3,0.1,0.8,0.2,1.5,0.2c2,0,3.3-1.2,3.9-3.7c0.6-2.1,1-5.7,1.1-10.8l0.1-9.6H202v27.9
					h-4.4v-23.9h-10l-0.1,6c-0.1,6-0.8,10.5-2,13.4c-1.2,3.1-3.6,4.6-7.1,4.6C177.8,478.3,177.3,478.3,176.8,478.1z"/>
			</defs>
			<clipPath id="SVGID_47_">
				<use xlink:href="#SVGID_46_"  style="overflow:visible;"/>
			</clipPath>
			
				<radialGradient id="SVGID_48_" cx="431.1407" cy="596.2832" r="1" gradientTransform="matrix(388.248 3.2487 3.2487 -388.248 -169227.8906 230569.4531)" gradientUnits="userSpaceOnUse">
				<stop  offset="0" style="stop-color:#FED57F"/>
				<stop  offset="0.1813" style="stop-color:#C29613"/>
				<stop  offset="0.3263" style="stop-color:#E4C382"/>
				<stop  offset="0.5156" style="stop-color:#A37414"/>
				<stop  offset="0.694" style="stop-color:#BB8E2A"/>
				<stop  offset="0.8708" style="stop-color:#AE781C"/>
				<stop  offset="1" style="stop-color:#FECE6A"/>
			</radialGradient>
			<polygon class="st15" points="176.8,450.1 202.2,450.3 202,478.6 176.6,478.3 			"/>
		</g>
		<g>
			<defs>
				<path id="SVGID_49_" d="M228.6,455.7l-5.1,11.7h10.2L228.6,455.7z M219,478.2h-4.7l12.2-28h4.2l12.2,28h-4.7l-3-6.9H222
					L219,478.2z"/>
			</defs>
			<clipPath id="SVGID_50_">
				<use xlink:href="#SVGID_49_"  style="overflow:visible;"/>
			</clipPath>
			
				<radialGradient id="SVGID_51_" cx="431.1407" cy="596.2832" r="1" gradientTransform="matrix(388.248 3.2487 3.2487 -388.248 -169227.8906 230569.4531)" gradientUnits="userSpaceOnUse">
				<stop  offset="0" style="stop-color:#FED57F"/>
				<stop  offset="0.1813" style="stop-color:#C29613"/>
				<stop  offset="0.3263" style="stop-color:#E4C382"/>
				<stop  offset="0.5156" style="stop-color:#A37414"/>
				<stop  offset="0.694" style="stop-color:#BB8E2A"/>
				<stop  offset="0.8708" style="stop-color:#AE781C"/>
				<stop  offset="1" style="stop-color:#FECE6A"/>
			</radialGradient>
			<polygon class="st16" points="214.3,449.9 243.2,450.2 242.9,478.5 214.1,478.2 			"/>
		</g>
		<g>
			<defs>
				<path id="SVGID_52_" d="M267,448.7c-2.1,0-3.8-0.6-5.1-1.8c-1.3-1.2-2-2.8-2-4.8h3.7c0,1,0.3,1.8,0.9,2.4
					c0.6,0.6,1.4,0.9,2.5,0.9c1,0,1.9-0.3,2.5-0.9c0.6-0.6,0.9-1.4,1-2.4h3.7c0,2-0.7,3.6-2,4.8C270.7,448.1,269,448.7,267,448.7z
					 M259,478.2h-3.7v-27.9h4.4v20.5l15.3-20.5h3.8v27.9h-4.4v-20.6L259,478.2z"/>
			</defs>
			<clipPath id="SVGID_53_">
				<use xlink:href="#SVGID_52_"  style="overflow:visible;"/>
			</clipPath>
			
				<radialGradient id="SVGID_54_" cx="431.1407" cy="596.2832" r="1" gradientTransform="matrix(388.248 3.2487 3.2487 -388.248 -169227.8906 230569.4531)" gradientUnits="userSpaceOnUse">
				<stop  offset="0" style="stop-color:#FED57F"/>
				<stop  offset="0.1813" style="stop-color:#C29613"/>
				<stop  offset="0.3263" style="stop-color:#E4C382"/>
				<stop  offset="0.5156" style="stop-color:#A37414"/>
				<stop  offset="0.694" style="stop-color:#BB8E2A"/>
				<stop  offset="0.8708" style="stop-color:#AE781C"/>
				<stop  offset="1" style="stop-color:#FECE6A"/>
			</radialGradient>
			<polygon class="st17" points="255.2,441.9 279.1,442.1 278.8,478.4 254.9,478.2 			"/>
		</g>
		<g>
			<defs>
				<polygon id="SVGID_55_" points="298.1,478.2 293.7,478.2 293.7,450.3 298.1,450.3 298.1,461.3 312.6,461.3 312.6,450.3 
					317,450.3 317,478.2 312.6,478.2 312.6,465.4 298.1,465.4 				"/>
			</defs>
			<clipPath id="SVGID_56_">
				<use xlink:href="#SVGID_55_"  style="overflow:visible;"/>
			</clipPath>
			
				<radialGradient id="SVGID_57_" cx="431.1407" cy="596.2832" r="1" gradientTransform="matrix(388.248 3.2487 3.2487 -388.248 -169227.8906 230569.4531)" gradientUnits="userSpaceOnUse">
				<stop  offset="0" style="stop-color:#FED57F"/>
				<stop  offset="0.1813" style="stop-color:#C29613"/>
				<stop  offset="0.3263" style="stop-color:#E4C382"/>
				<stop  offset="0.5156" style="stop-color:#A37414"/>
				<stop  offset="0.694" style="stop-color:#BB8E2A"/>
				<stop  offset="0.8708" style="stop-color:#AE781C"/>
				<stop  offset="1" style="stop-color:#FECE6A"/>
			</radialGradient>
			<polygon class="st18" points="293.7,450.1 317.2,450.3 317,478.4 293.4,478.2 			"/>
		</g>
		<g>
			<defs>
				<path id="SVGID_58_" d="M373.6,474.6c-2.7,2.8-6.1,4.1-10.2,4.1s-7.5-1.4-10.2-4.1c-2.7-2.8-4-6.3-4-10.3c0-4.1,1.3-7.5,4-10.3
					c2.7-2.8,6.1-4.2,10.2-4.2s7.5,1.4,10.2,4.2c2.7,2.8,4.1,6.2,4.1,10.3S376.3,471.8,373.6,474.6z M356.5,471.7
					c1.9,2,4.2,2.9,6.9,2.9c2.7,0,5-1,6.9-2.9c1.9-2,2.8-4.5,2.8-7.4c0-2.9-0.9-5.4-2.8-7.4c-1.9-2-4.2-3-6.9-3c-2.7,0-5,1-6.9,3
					c-1.9,1.9-2.8,4.4-2.8,7.4S354.6,469.7,356.5,471.7z"/>
			</defs>
			<clipPath id="SVGID_59_">
				<use xlink:href="#SVGID_58_"  style="overflow:visible;"/>
			</clipPath>
			
				<radialGradient id="SVGID_60_" cx="431.1407" cy="596.2832" r="1" gradientTransform="matrix(388.248 3.2487 3.2487 -388.248 -169227.8906 230569.4531)" gradientUnits="userSpaceOnUse">
				<stop  offset="0" style="stop-color:#FED57F"/>
				<stop  offset="0.1813" style="stop-color:#C29613"/>
				<stop  offset="0.3263" style="stop-color:#E4C382"/>
				<stop  offset="0.5156" style="stop-color:#A37414"/>
				<stop  offset="0.694" style="stop-color:#BB8E2A"/>
				<stop  offset="0.8708" style="stop-color:#AE781C"/>
				<stop  offset="1" style="stop-color:#FECE6A"/>
			</radialGradient>
			<polygon class="st19" points="349.2,449.6 377.9,449.8 377.7,479 349,478.7 			"/>
		</g>
		<g>
			<defs>
				<path id="SVGID_61_" d="M396,464.3v9.9h7c2,0,3.5-0.4,4.6-1.3c1.1-0.9,1.6-2.1,1.6-3.6c0-1.6-0.5-2.8-1.6-3.7
					c-1.1-0.9-2.6-1.3-4.5-1.3H396z M403.4,478.2h-11.8v-27.9h19.7v4H396v5.9h7.4c3.2,0,5.7,0.8,7.5,2.5c1.8,1.6,2.7,3.8,2.7,6.5
					c0,2.7-0.9,4.9-2.7,6.5C409.1,477.4,406.6,478.2,403.4,478.2z"/>
			</defs>
			<clipPath id="SVGID_62_">
				<use xlink:href="#SVGID_61_"  style="overflow:visible;"/>
			</clipPath>
			
				<radialGradient id="SVGID_63_" cx="431.1407" cy="596.2832" r="1" gradientTransform="matrix(388.248 3.2487 3.2487 -388.248 -169227.8906 230569.4531)" gradientUnits="userSpaceOnUse">
				<stop  offset="0" style="stop-color:#FED57F"/>
				<stop  offset="0.1813" style="stop-color:#C29613"/>
				<stop  offset="0.3263" style="stop-color:#E4C382"/>
				<stop  offset="0.5156" style="stop-color:#A37414"/>
				<stop  offset="0.694" style="stop-color:#BB8E2A"/>
				<stop  offset="0.8708" style="stop-color:#AE781C"/>
				<stop  offset="1" style="stop-color:#FECE6A"/>
			</radialGradient>
			<polygon class="st20" points="391.6,450.1 413.9,450.3 413.6,478.4 391.4,478.2 			"/>
		</g>
		<g>
			<defs>
				<path id="SVGID_64_" d="M431.5,454.4v8.3h7.3c1.6,0,2.9-0.4,3.9-1.1c0.9-0.7,1.4-1.8,1.4-3.1s-0.5-2.4-1.4-3.1
					c-0.9-0.7-2.2-1.1-3.9-1.1H431.5z M431.5,478.2h-4.4v-27.9h12c2.9,0,5.2,0.8,6.8,2.3c1.7,1.5,2.5,3.4,2.5,5.8s-0.8,4.4-2.5,6
					c-1.6,1.5-3.9,2.3-6.8,2.3h-7.6V478.2z"/>
			</defs>
			<clipPath id="SVGID_65_">
				<use xlink:href="#SVGID_64_"  style="overflow:visible;"/>
			</clipPath>
			
				<radialGradient id="SVGID_66_" cx="431.1407" cy="596.2832" r="1" gradientTransform="matrix(388.248 3.2487 3.2487 -388.248 -169227.8906 230569.4531)" gradientUnits="userSpaceOnUse">
				<stop  offset="0" style="stop-color:#FED57F"/>
				<stop  offset="0.1813" style="stop-color:#C29613"/>
				<stop  offset="0.3263" style="stop-color:#E4C382"/>
				<stop  offset="0.5156" style="stop-color:#A37414"/>
				<stop  offset="0.694" style="stop-color:#BB8E2A"/>
				<stop  offset="0.8708" style="stop-color:#AE781C"/>
				<stop  offset="1" style="stop-color:#FECE6A"/>
			</radialGradient>
			<polygon class="st21" points="427.1,450.2 448.7,450.3 448.5,478.4 426.9,478.2 			"/>
		</g>
		<g>
			<defs>
				<path id="SVGID_67_" d="M470.1,455.7l-5.1,11.7h10.2L470.1,455.7z M460.5,478.2h-4.7l12.2-28h4.2l12.2,28h-4.7l-3-6.9h-13.2
					L460.5,478.2z"/>
			</defs>
			<clipPath id="SVGID_68_">
				<use xlink:href="#SVGID_67_"  style="overflow:visible;"/>
			</clipPath>
			
				<radialGradient id="SVGID_69_" cx="431.1407" cy="596.2832" r="1" gradientTransform="matrix(388.248 3.2487 3.2487 -388.248 -169227.8906 230569.4531)" gradientUnits="userSpaceOnUse">
				<stop  offset="0" style="stop-color:#FED57F"/>
				<stop  offset="0.1813" style="stop-color:#C29613"/>
				<stop  offset="0.3263" style="stop-color:#E4C382"/>
				<stop  offset="0.5156" style="stop-color:#A37414"/>
				<stop  offset="0.694" style="stop-color:#BB8E2A"/>
				<stop  offset="0.8708" style="stop-color:#AE781C"/>
				<stop  offset="1" style="stop-color:#FECE6A"/>
			</radialGradient>
			<polygon class="st22" points="455.9,449.9 484.7,450.2 484.5,478.5 455.6,478.2 			"/>
		</g>
		<g>
			<defs>
				<path id="SVGID_70_" d="M504.7,478.7c-3.9,0-7.2-0.8-9.8-2.4V472c1.2,0.8,2.7,1.4,4.3,1.9c1.7,0.5,3.3,0.7,4.8,0.7
					c2.4,0,4.2-0.4,5.6-1.3c1.4-0.9,2.1-2.1,2.1-3.6c0-1.3-0.6-2.4-1.9-3.1c-1.2-0.8-2.9-1.2-4.9-1.2h-3.5v-4h4c1.7,0,3-0.3,3.9-1
					c0.9-0.7,1.4-1.6,1.4-2.7c0-1.2-0.5-2.1-1.6-2.7c-1.1-0.7-2.5-1-4.4-1c-3,0-5.8,0.7-8.6,2v-4c2.7-1.4,5.7-2.1,8.8-2.1
					c3,0,5.5,0.7,7.3,2.1c1.9,1.4,2.8,3.2,2.8,5.5c0,1.5-0.5,2.8-1.4,3.7c-0.9,1-1.9,1.7-3,2c1.5,0.4,2.7,1.2,3.8,2.5
					c1.1,1.2,1.6,2.7,1.6,4.5c0,2.5-1,4.6-3.1,6.2C511,477.9,508.2,478.7,504.7,478.7z"/>
			</defs>
			<clipPath id="SVGID_71_">
				<use xlink:href="#SVGID_70_"  style="overflow:visible;"/>
			</clipPath>
			
				<radialGradient id="SVGID_72_" cx="431.1407" cy="596.2832" r="1" gradientTransform="matrix(388.248 3.2487 3.2487 -388.248 -169227.8906 230569.4531)" gradientUnits="userSpaceOnUse">
				<stop  offset="0" style="stop-color:#FED57F"/>
				<stop  offset="0.1813" style="stop-color:#C29613"/>
				<stop  offset="0.3263" style="stop-color:#E4C382"/>
				<stop  offset="0.5156" style="stop-color:#A37414"/>
				<stop  offset="0.694" style="stop-color:#BB8E2A"/>
				<stop  offset="0.8708" style="stop-color:#AE781C"/>
				<stop  offset="1" style="stop-color:#FECE6A"/>
			</radialGradient>
			<polygon class="st23" points="494.9,449.6 516.4,449.8 516.2,478.9 494.7,478.7 			"/>
		</g>
		<g>
			<defs>
				<path id="SVGID_73_" d="M552.6,474.6c-2.7,2.8-6.1,4.1-10.2,4.1c-4.1,0-7.5-1.4-10.2-4.1c-2.7-2.8-4-6.3-4-10.3
					c0-4.1,1.3-7.5,4-10.3c2.7-2.8,6.1-4.2,10.2-4.2c4.1,0,7.5,1.4,10.2,4.2c2.7,2.8,4.1,6.2,4.1,10.3S555.3,471.8,552.6,474.6z
					 M535.5,471.7c1.9,2,4.2,2.9,6.9,2.9c2.7,0,5-1,6.9-2.9c1.9-2,2.8-4.5,2.8-7.4c0-2.9-0.9-5.4-2.8-7.4c-1.9-2-4.2-3-6.9-3
					c-2.7,0-5,1-6.9,3c-1.9,1.9-2.8,4.4-2.8,7.4S533.6,469.7,535.5,471.7z"/>
			</defs>
			<clipPath id="SVGID_74_">
				<use xlink:href="#SVGID_73_"  style="overflow:visible;"/>
			</clipPath>
			
				<radialGradient id="SVGID_75_" cx="431.1407" cy="596.2832" r="1" gradientTransform="matrix(388.248 3.2487 3.2487 -388.248 -169227.8906 230569.4531)" gradientUnits="userSpaceOnUse">
				<stop  offset="0" style="stop-color:#FED57F"/>
				<stop  offset="0.1813" style="stop-color:#C29613"/>
				<stop  offset="0.3263" style="stop-color:#E4C382"/>
				<stop  offset="0.5156" style="stop-color:#A37414"/>
				<stop  offset="0.694" style="stop-color:#BB8E2A"/>
				<stop  offset="0.8708" style="stop-color:#AE781C"/>
				<stop  offset="1" style="stop-color:#FECE6A"/>
			</radialGradient>
			<polygon class="st24" points="528.2,449.6 556.9,449.8 556.7,479 527.9,478.7 			"/>
		</g>
		<g>
			<defs>
				<path id="SVGID_76_" d="M574.9,454.4v7.2h7.5c1.5,0,2.6-0.3,3.4-0.9c0.8-0.6,1.2-1.5,1.2-2.7c0-1.2-0.4-2.1-1.2-2.7
					s-1.9-0.9-3.4-0.9H574.9z M574.9,465.4v8.8h8.5c1.7,0,3-0.4,4-1.2c1-0.8,1.5-1.9,1.5-3.3c0-1.4-0.5-2.4-1.4-3.2
					c-1-0.7-2.3-1.1-4-1.1H574.9z M584.3,478.2h-13.7v-27.9h12.7c2.5,0,4.5,0.6,6,1.8c1.5,1.2,2.2,2.9,2.2,5c0,1.4-0.3,2.6-1,3.6
					c-0.7,1-1.6,1.7-2.7,2.2c1.8,0.3,3.2,1.1,4.3,2.5c1.1,1.3,1.7,3,1.7,5c0,2.4-0.8,4.3-2.5,5.7
					C589.4,477.5,587.2,478.2,584.3,478.2z"/>
			</defs>
			<clipPath id="SVGID_77_">
				<use xlink:href="#SVGID_76_"  style="overflow:visible;"/>
			</clipPath>
			
				<radialGradient id="SVGID_78_" cx="431.1407" cy="596.2832" r="1" gradientTransform="matrix(388.248 3.2487 3.2487 -388.248 -169227.8906 230569.4531)" gradientUnits="userSpaceOnUse">
				<stop  offset="0" style="stop-color:#FED57F"/>
				<stop  offset="0.1813" style="stop-color:#C29613"/>
				<stop  offset="0.3263" style="stop-color:#E4C382"/>
				<stop  offset="0.5156" style="stop-color:#A37414"/>
				<stop  offset="0.694" style="stop-color:#BB8E2A"/>
				<stop  offset="0.8708" style="stop-color:#AE781C"/>
				<stop  offset="1" style="stop-color:#FECE6A"/>
			</radialGradient>
			<polygon class="st25" points="570.6,450.1 593.9,450.3 593.7,478.4 570.3,478.2 			"/>
		</g>
		<g>
			<defs>
				<path id="SVGID_79_" d="M618.9,455.7l-5.1,11.7H624L618.9,455.7z M609.3,478.2h-4.7l12.2-28h4.2l12.2,28h-4.7l-3-6.9h-13.2
					L609.3,478.2z"/>
			</defs>
			<clipPath id="SVGID_80_">
				<use xlink:href="#SVGID_79_"  style="overflow:visible;"/>
			</clipPath>
			
				<radialGradient id="SVGID_81_" cx="431.1407" cy="596.2832" r="1" gradientTransform="matrix(388.248 3.2487 3.2487 -388.248 -169227.8906 230569.4531)" gradientUnits="userSpaceOnUse">
				<stop  offset="0" style="stop-color:#FED57F"/>
				<stop  offset="0.1813" style="stop-color:#C29613"/>
				<stop  offset="0.3263" style="stop-color:#E4C382"/>
				<stop  offset="0.5156" style="stop-color:#A37414"/>
				<stop  offset="0.694" style="stop-color:#BB8E2A"/>
				<stop  offset="0.8708" style="stop-color:#AE781C"/>
				<stop  offset="1" style="stop-color:#FECE6A"/>
			</radialGradient>
			<polygon class="st26" points="604.7,449.9 633.5,450.2 633.3,478.5 604.4,478.2 			"/>
		</g>
		<g>
			<defs>
				<polygon id="SVGID_82_" points="650,478.2 645.6,478.2 645.6,450.3 650,450.3 650,461.3 664.5,461.3 664.5,450.3 668.9,450.3 
					668.9,478.2 664.5,478.2 664.5,465.4 650,465.4 				"/>
			</defs>
			<clipPath id="SVGID_83_">
				<use xlink:href="#SVGID_82_"  style="overflow:visible;"/>
			</clipPath>
			
				<radialGradient id="SVGID_84_" cx="431.1407" cy="596.2832" r="1" gradientTransform="matrix(388.248 3.2487 3.2487 -388.248 -169227.8906 230569.4531)" gradientUnits="userSpaceOnUse">
				<stop  offset="0" style="stop-color:#FED57F"/>
				<stop  offset="0.1813" style="stop-color:#C29613"/>
				<stop  offset="0.3263" style="stop-color:#E4C382"/>
				<stop  offset="0.5156" style="stop-color:#A37414"/>
				<stop  offset="0.694" style="stop-color:#BB8E2A"/>
				<stop  offset="0.8708" style="stop-color:#AE781C"/>
				<stop  offset="1" style="stop-color:#FECE6A"/>
			</radialGradient>
			<polygon class="st27" points="645.6,450.1 669.1,450.3 668.9,478.4 645.4,478.2 			"/>
		</g>
		<g>
			<defs>
				<polygon id="SVGID_85_" points="687.5,478.2 683.8,478.2 683.8,450.3 688.2,450.3 688.2,470.8 703.5,450.3 707.3,450.3 
					707.3,478.2 703,478.2 703,457.7 				"/>
			</defs>
			<clipPath id="SVGID_86_">
				<use xlink:href="#SVGID_85_"  style="overflow:visible;"/>
			</clipPath>
			
				<radialGradient id="SVGID_87_" cx="431.1407" cy="596.2832" r="1" gradientTransform="matrix(388.248 3.2487 3.2487 -388.248 -169227.8906 230569.4531)" gradientUnits="userSpaceOnUse">
				<stop  offset="0" style="stop-color:#FED57F"/>
				<stop  offset="0.1813" style="stop-color:#C29613"/>
				<stop  offset="0.3263" style="stop-color:#E4C382"/>
				<stop  offset="0.5156" style="stop-color:#A37414"/>
				<stop  offset="0.694" style="stop-color:#BB8E2A"/>
				<stop  offset="0.8708" style="stop-color:#AE781C"/>
				<stop  offset="1" style="stop-color:#FECE6A"/>
			</radialGradient>
			<polygon class="st28" points="683.8,450.1 707.6,450.3 707.3,478.4 683.6,478.2 			"/>
		</g>
		<g>
			<defs>
				<polygon id="SVGID_88_" points="742.6,478.2 722.2,478.2 722.2,450.3 742.1,450.3 742.1,454.4 726.6,454.4 726.6,461.3 
					739.2,461.3 739.2,465.4 726.6,465.4 726.6,474.2 742.6,474.2 				"/>
			</defs>
			<clipPath id="SVGID_89_">
				<use xlink:href="#SVGID_88_"  style="overflow:visible;"/>
			</clipPath>
			
				<radialGradient id="SVGID_90_" cx="431.1407" cy="596.2832" r="1" gradientTransform="matrix(388.248 3.2487 3.2487 -388.248 -169227.8906 230569.4531)" gradientUnits="userSpaceOnUse">
				<stop  offset="0" style="stop-color:#FED57F"/>
				<stop  offset="0.1813" style="stop-color:#C29613"/>
				<stop  offset="0.3263" style="stop-color:#E4C382"/>
				<stop  offset="0.5156" style="stop-color:#A37414"/>
				<stop  offset="0.694" style="stop-color:#BB8E2A"/>
				<stop  offset="0.8708" style="stop-color:#AE781C"/>
				<stop  offset="1" style="stop-color:#FECE6A"/>
			</radialGradient>
			<polygon class="st29" points="722.2,450.2 742.8,450.3 742.6,478.4 722,478.2 			"/>
		</g>
	</g>
</g>
<g id="Слой_2" class="st121">
</g>
</svg>
