<svg width="30" height="30" viewBox="0 0 30 30" fill="none" xmlns="http://www.w3.org/2000/svg">
<g clip-path="url(#clip0)">
<path fill-rule="evenodd" clip-rule="evenodd" d="M7.05507 0.100171C6.99977 0.00438296 6.87729 -0.0284384 6.7815 0.0268625C6.68571 0.0821635 6.65289 0.204645 6.70819 0.300434L8.3183 3.08935C7.03243 4.37648 6.24586 6.05083 6.22032 7.88475H23.3681C23.3426 6.05101 22.5561 4.37673 21.2704 3.0896L22.8807 0.300438C22.936 0.204652 22.9032 0.082169 22.8074 0.0268654C22.7116 -0.0284383 22.5891 0.00437959 22.5338 0.100166L20.9717 2.80573C19.6197 1.58483 17.7932 0.763808 15.7496 0.566663H13.8388C11.7954 0.763739 9.96899 1.58465 8.61692 2.80549L7.05507 0.100171ZM12.4068 23.6723H17.1821V28.5602C17.1821 29.6103 18.0334 30.4615 19.0833 30.4615C20.1334 30.4615 20.9847 29.6103 20.9847 28.5602V23.6723H21.0776C22.3836 23.6723 23.4355 22.6016 23.4355 21.2727V8.91519C23.4355 8.84149 23.4329 8.76832 23.4267 8.69649H6.16475C6.15847 8.76859 6.153 8.84149 6.153 8.91519V21.2727C6.153 22.6017 7.20494 23.6723 8.51083 23.6723H8.60428V28.5603C8.60428 29.6104 9.45555 30.4615 10.5055 30.4615C11.5556 30.4615 12.4068 29.6104 12.4068 28.5603V23.6723ZM3.09813 9.79625C4.14807 9.79625 4.99935 10.6475 4.99935 11.6976V19.8539C4.99935 20.904 4.14807 21.7552 3.09813 21.7552C2.04805 21.7552 1.19678 20.904 1.19678 19.854V11.6977C1.19664 10.6477 2.04792 9.79625 3.09813 9.79625ZM26.4907 9.79625C27.5407 9.79625 28.3919 10.6475 28.3919 11.6976V19.8539C28.3919 20.904 27.5407 21.7552 26.4907 21.7552C25.4407 21.7552 24.5894 20.904 24.5894 19.854V11.6977C24.5894 10.6477 25.4407 9.79625 26.4907 9.79625Z" fill="url(#paint0_linear)"/>
<circle cx="10.8182" cy="4.81818" r="0.818181" fill="#171717"/>
<circle cx="18.182" cy="4.81818" r="0.818181" fill="#171717"/>
</g>
<defs>
<linearGradient id="paint0_linear" x1="-0.591139" y1="-67.6923" x2="53.5245" y2="-54.9901" gradientUnits="userSpaceOnUse">
<stop stop-color="#FCD17B"/>
<stop offset="0.141409" stop-color="#C3971C"/>
<stop offset="0.281773" stop-color="#B88927"/>
<stop offset="0.441032" stop-color="#E2C280"/>
<stop offset="0.497216" stop-color="#D3B16E"/>
<stop offset="0.575996" stop-color="#BF9955"/>
<stop offset="0.713661" stop-color="#A57617"/>
<stop offset="0.872919" stop-color="#AE8020"/>
<stop offset="1" stop-color="#FFCF69"/>
</linearGradient>
<clipPath id="clip0">
<rect width="30" height="30" fill="white"/>
</clipPath>
</defs>
</svg>
