<svg width="40" height="40" viewBox="0 0 40 40" fill="none" xmlns="http://www.w3.org/2000/svg">
<path d="M7.92585 6.8775C7.8292 6.87833 7.73333 6.86083 7.64379 6.82603C7.55425 6.79122 7.4728 6.7398 7.40415 6.67472C7.3355 6.60964 7.28101 6.5322 7.24382 6.44687C7.20664 6.36154 7.1875 6.27 7.1875 6.17756V2.58408C7.18663 2.49111 7.20513 2.3989 7.24193 2.31285C7.27872 2.22679 7.33308 2.14861 7.40181 2.08286C7.47055 2.01712 7.55229 1.96514 7.64227 1.92994C7.73224 1.89475 7.82865 1.87705 7.92585 1.87788H10.7486C10.8817 1.88001 11.0128 1.84738 11.128 1.78351C11.2431 1.71964 11.3378 1.62695 11.402 1.51541C11.713 1.03398 12.1522 0.640243 12.6746 0.374501C13.1969 0.10876 13.7838 -0.0194403 14.375 0.00302535C14.9684 -0.021694 15.5579 0.105426 16.0828 0.371275C16.6077 0.637124 17.049 1.03208 17.3611 1.51541C17.4252 1.62695 17.52 1.71964 17.6351 1.78351C17.7502 1.84738 17.8814 1.88001 18.0145 1.87788H20.8438C21.0367 1.88117 21.2205 1.95722 21.3551 2.08948C21.4897 2.22175 21.5643 2.39951 21.5625 2.58408V6.17756C21.5625 6.3632 21.4854 6.54123 21.3482 6.6725C21.2109 6.80376 21.0248 6.8775 20.8307 6.8775H7.92585ZM28.75 5.39637V38.9876C28.7483 39.2556 28.6362 39.5121 28.4381 39.7017C28.2399 39.8912 27.9717 39.9984 27.6915 40H1.06506C0.783715 40 0.513799 39.8935 0.314249 39.7038C0.114698 39.5142 0.00172603 39.2567 0 38.9876V5.39637C0 5.26259 0.0275482 5.13013 0.0810723 5.00654C0.134596 4.88295 0.213048 4.77065 0.311948 4.67606C0.410848 4.58146 0.528258 4.50643 0.657477 4.45524C0.786696 4.40404 0.925192 4.37769 1.06506 4.37769H5.88068V6.17756C5.88241 6.69526 6.09865 7.1912 6.482 7.55669C6.86536 7.92218 7.38457 8.12741 7.92585 8.12741H20.8307C21.3714 8.12741 21.8899 7.92198 22.2722 7.55631C22.6545 7.19064 22.8693 6.69469 22.8693 6.17756V4.37769H27.6915C27.9728 4.37934 28.242 4.4874 28.4404 4.67826C28.6387 4.86912 28.75 5.12728 28.75 5.39637ZM24.1761 19.7703L20.504 16.2518L8.49432 27.7134V31.2507H12.1926L24.1761 19.7703Z" fill="url(#paint0_linear)"/>
<defs>
<linearGradient id="paint0_linear" x1="-1.89014" y1="-88.8889" x2="56.3902" y2="-77.8756" gradientUnits="userSpaceOnUse">
<stop stop-color="#FCD17B"/>
<stop offset="0.141409" stop-color="#C3971C"/>
<stop offset="0.281773" stop-color="#B88927"/>
<stop offset="0.441032" stop-color="#E2C280"/>
<stop offset="0.497216" stop-color="#D3B16E"/>
<stop offset="0.575996" stop-color="#BF9955"/>
<stop offset="0.713661" stop-color="#A57617"/>
<stop offset="0.872919" stop-color="#AE8020"/>
<stop offset="1" stop-color="#FFCF69"/>
</linearGradient>
</defs>
</svg>
