<svg width="39" height="38" viewBox="0 0 39 38" fill="none" xmlns="http://www.w3.org/2000/svg">
<path fill-rule="evenodd" clip-rule="evenodd" d="M10.0047 1.44375V6.31641C10.0047 7.09844 9.34297 7.76016 8.56094 7.76016C7.77891 7.76016 7.11719 7.09844 7.11719 6.31641V1.44375C7.11719 0.661719 7.77891 0 8.56094 0C9.34297 0 10.0047 0.661719 10.0047 1.44375ZM21.2539 1.44375V6.31641C21.2539 7.09844 20.5922 7.76016 19.8101 7.76016C19.0281 7.76016 18.3664 7.09844 18.3664 6.31641V1.44375C18.3664 0.661719 19.0281 0 19.8101 0C20.5922 0 21.2539 0.661719 21.2539 1.44375ZM32.5633 6.31641V1.44375C32.5633 0.661719 31.9016 0 31.1195 0C30.2773 0 29.6758 0.661719 29.6758 1.44375V6.31641C29.6758 7.09844 30.3375 7.76016 31.1195 7.76016C31.9016 7.76016 32.5633 7.09844 32.5633 6.31641ZM39 6.01562V12.6328H0.5V6.01562C0.5 4.03047 2.12422 2.40625 4.10938 2.40625H5.91406V6.37656C5.91406 7.88047 7.11719 9.08359 8.62109 9.08359C10.125 9.08359 11.3281 7.88047 11.3281 6.37656V2.40625H17.2234V6.37656C17.2234 7.88047 18.4266 9.08359 19.9305 9.08359C21.4344 9.08359 22.6375 7.88047 22.6375 6.37656V2.40625H28.5328V6.37656C28.5328 7.88047 29.7359 9.08359 31.2398 9.08359C32.7438 9.08359 33.9469 7.88047 33.9469 6.37656V2.40625H35.5711C37.3758 2.40625 39 3.97031 39 6.01562ZM2.90625 37.8985C1.58281 37.8985 0.5 36.8157 0.5 35.4922V13.8962H39V35.4922C39 36.8157 37.9172 37.8985 36.5938 37.8985H2.90625ZM32.0219 17.3251C31.6008 17.3251 31.2398 17.686 31.2398 18.1071V20.3329C31.2398 20.754 31.6008 21.1149 32.0219 21.1149H34.2477C34.6688 21.1149 35.0297 20.754 35.0297 20.3329V18.1071C35.0297 17.686 34.6688 17.3251 34.2477 17.3251H32.0219ZM32.0219 23.7016C31.6008 23.7016 31.2398 24.0626 31.2398 24.4837V26.7094C31.2398 27.1305 31.6008 27.4915 32.0219 27.4915H34.2477C34.6688 27.4915 35.0297 27.1305 35.0297 26.7094V24.4837C35.0297 24.0626 34.6688 23.7016 34.2477 23.7016H32.0219ZM32.0219 30.0782C31.6008 30.0782 31.2398 30.4391 31.2398 30.8602V33.086C31.2398 33.5071 31.6008 33.868 32.0219 33.868H34.2477C34.6688 33.868 35.0297 33.5071 35.0297 33.086V30.8602C35.0297 30.4391 34.6688 30.0782 34.2477 30.0782H32.0219ZM25.3445 17.3251C24.9234 17.3251 24.5625 17.686 24.5625 18.1071V20.3329C24.5625 20.754 24.9234 21.1149 25.3445 21.1149H27.5703C27.9914 21.1149 28.3523 20.754 28.3523 20.3329V18.1071C28.3523 17.686 27.9914 17.3251 27.5703 17.3251H25.3445ZM25.3445 23.7016C24.9234 23.7016 24.5625 24.0626 24.5625 24.4837V26.7094C24.5625 27.1305 24.9234 27.4915 25.3445 27.4915H27.5703C27.9914 27.4915 28.3523 27.1305 28.3523 26.7094V24.4837C28.3523 24.0626 27.9914 23.7016 27.5703 23.7016H25.3445ZM25.3445 30.0782C24.9234 30.0782 24.5625 30.4391 24.5625 30.8602V33.086C24.5625 33.5071 24.9234 33.868 25.3445 33.868H27.5703C27.9914 33.868 28.3523 33.5071 28.3523 33.086V30.8602C28.3523 30.4391 27.9914 30.0782 27.5703 30.0782H25.3445ZM18.607 17.3251C18.1859 17.3251 17.825 17.686 17.825 18.1071V20.3329C17.825 20.754 18.1859 21.1149 18.607 21.1149H20.8328C21.2539 21.1149 21.6148 20.754 21.6148 20.3329V18.1071C21.6148 17.686 21.2539 17.3251 20.8328 17.3251H18.607ZM18.607 23.7016C18.1859 23.7016 17.825 24.0626 17.825 24.4837V26.7094C17.825 27.1305 18.1859 27.4915 18.607 27.4915H20.8328C21.2539 27.4915 21.6148 27.1305 21.6148 26.7094V24.4837C21.6148 24.0626 21.2539 23.7016 20.8328 23.7016H18.607ZM18.607 30.0782C18.1859 30.0782 17.825 30.4391 17.825 30.8602V33.086C17.825 33.5071 18.1859 33.868 18.607 33.868H20.8328C21.2539 33.868 21.6148 33.5071 21.6148 33.086V30.8602C21.6148 30.4391 21.2539 30.0782 20.8328 30.0782H18.607ZM11.9297 17.3251C11.5086 17.3251 11.1477 17.686 11.1477 18.1071V20.3329C11.1477 20.754 11.5086 21.1149 11.9297 21.1149H14.1555C14.5766 21.1149 14.9375 20.754 14.9375 20.3329V18.1071C14.9375 17.686 14.5766 17.3251 14.1555 17.3251H11.9297ZM11.9297 23.7016C11.5086 23.7016 11.1477 24.0626 11.1477 24.4837V26.7094C11.1477 27.1305 11.5086 27.4915 11.9297 27.4915H14.1555C14.5766 27.4915 14.9375 27.1305 14.9375 26.7094V24.4837C14.9375 24.0626 14.5766 23.7016 14.1555 23.7016H11.9297ZM11.9297 30.0782C11.5086 30.0782 11.1477 30.4391 11.1477 30.8602V33.086C11.1477 33.5071 11.5086 33.868 11.9297 33.868H14.1555C14.5766 33.868 14.9375 33.5071 14.9375 33.086V30.8602C14.9375 30.4391 14.5766 30.0782 14.1555 30.0782H11.9297ZM5.25234 17.3251C4.83125 17.3251 4.47031 17.686 4.47031 18.1071V20.3329C4.47031 20.754 4.83125 21.1149 5.25234 21.1149H7.47813C7.89922 21.1149 8.26016 20.754 8.26016 20.3329V18.1071C8.26016 17.686 7.89922 17.3251 7.47813 17.3251H5.25234ZM5.25234 23.7016C4.83125 23.7016 4.47031 24.0626 4.47031 24.4837V26.7094C4.47031 27.1305 4.83125 27.4915 5.25234 27.4915H7.47813C7.89922 27.4915 8.26016 27.1305 8.26016 26.7094V24.4837C8.26016 24.0626 7.89922 23.7016 7.47813 23.7016H5.25234ZM5.25234 30.0782C4.83125 30.0782 4.47031 30.4391 4.47031 30.8602V33.086C4.47031 33.5071 4.83125 33.868 5.25234 33.868H7.47813C7.89922 33.868 8.26016 33.5071 8.26016 33.086V30.8602C8.26016 30.4391 7.89922 30.0782 7.47813 30.0782H5.25234Z" fill="url(#paint0_linear)"/>
<defs>
<linearGradient id="paint0_linear" x1="-2.03114" y1="-84.2189" x2="73.4186" y2="-64.0672" gradientUnits="userSpaceOnUse">
<stop stop-color="#FCD17B"/>
<stop offset="0.141409" stop-color="#C3971C"/>
<stop offset="0.281773" stop-color="#B88927"/>
<stop offset="0.441032" stop-color="#E2C280"/>
<stop offset="0.497216" stop-color="#D3B16E"/>
<stop offset="0.575996" stop-color="#BF9955"/>
<stop offset="0.713661" stop-color="#A57617"/>
<stop offset="0.872919" stop-color="#AE8020"/>
<stop offset="1" stop-color="#FFCF69"/>
</linearGradient>
</defs>
</svg>
