<svg width="40" height="34" viewBox="0 0 40 34" fill="none" xmlns="http://www.w3.org/2000/svg">
<path d="M40 3.21574V26.3616C40 27.4178 39.4948 28.3363 38.7141 28.9333C38.163 29.3466 37.4742 29.6222 36.7853 29.6222H30.6315H28.5649H24.1102V32.8369H29.07C29.2997 32.8369 29.4834 33.0206 29.4834 33.2502V33.9391C29.4834 34.1687 29.2997 34.3524 29.07 34.3524H10.7003C10.4707 34.3524 10.287 34.1687 10.287 33.9391V33.2502C10.287 33.0206 10.4707 32.8369 10.7003 32.8369H15.7061V29.6222H11.2055H8.9093H3.2147C2.47991 29.6222 1.79104 29.3926 1.28588 28.9333C0.505167 28.3363 0 27.4178 0 26.3616V3.21574C0 1.4247 1.46958 0.00104792 3.2147 0.00104792H36.7394C38.5304 -0.0448763 40 1.4247 40 3.21574ZM30.1263 27.4178H36.6016C35.6831 21.8151 31.6418 18.4626 28.7026 18.4626C27.6464 18.4626 26.4524 18.9218 25.3042 19.6566C26.3146 20.4373 27.1871 21.4936 28.0138 22.6876C28.8863 24.1113 29.6211 25.7645 30.1263 27.4178ZM32.147 14.6968C32.6521 13.962 32.9736 13.1354 32.9736 12.2169C32.9736 9.82883 31.0448 7.94594 28.7026 7.94594C27.5086 7.94594 26.4524 8.45111 25.6716 9.23182C26.3146 10.334 26.7279 11.6199 26.7279 12.9058C26.7279 13.9161 26.4983 14.7887 26.1768 15.6612C26.9116 16.2123 27.7842 16.4878 28.7026 16.4878C29.8967 16.4878 30.9988 15.9827 31.7796 15.156C31.8714 15.0183 31.9633 14.8346 32.147 14.6968ZM11.7107 27.4178H27.9679C27.0494 24.6624 25.3961 22.5498 23.6051 21.264C23.054 20.8047 22.4569 20.4833 21.8599 20.2536C21.1251 19.9781 20.4822 19.7944 19.8393 19.7944C19.2882 19.7944 18.6912 19.8862 18.1401 20.1159C17.5431 20.3455 16.946 20.621 16.3031 21.0343C14.4661 22.3661 12.721 24.5246 11.7107 27.4178ZM24.4317 12.768C24.4317 10.1962 22.3192 8.08371 19.7474 8.08371C17.1757 8.12964 15.0631 10.2422 15.0631 12.768C15.0631 15.3397 17.1297 17.4523 19.7474 17.4523C22.3651 17.4523 24.4317 15.3397 24.4317 12.768ZM12.8588 12.9058C12.8588 11.4362 13.318 10.1044 14.0528 9.0022C13.2721 8.35926 12.3536 7.94594 11.2514 7.94594C8.9093 7.94594 6.98048 9.87476 6.98048 12.2628C6.98048 13.1813 7.25603 14.0079 7.80712 14.7427C7.99082 14.9264 8.08266 15.0642 8.17451 15.2479C8.95522 16.0745 10.0574 16.5797 11.2514 16.5797C12.0781 16.5797 12.8588 16.3501 13.4558 15.9368C13.0425 14.9723 12.8588 13.962 12.8588 12.9058ZM11.527 22.7335C12.3995 21.4017 13.3639 20.3455 14.4661 19.5188C13.4099 18.83 12.2618 18.4167 11.2514 18.4167C8.31228 18.4626 4.31688 21.8151 3.39839 27.4178H9.36854C9.87371 25.7645 10.6085 24.1113 11.527 22.7335Z" fill="url(#paint0_linear)"/>
<defs>
<linearGradient id="paint0_linear" x1="-2.62976" y1="-76.3386" x2="74.1551" y2="-52.8317" gradientUnits="userSpaceOnUse">
<stop stop-color="#FCD17B"/>
<stop offset="0.141409" stop-color="#C3971C"/>
<stop offset="0.281773" stop-color="#B88927"/>
<stop offset="0.441032" stop-color="#E2C280"/>
<stop offset="0.497216" stop-color="#D3B16E"/>
<stop offset="0.575996" stop-color="#BF9955"/>
<stop offset="0.713661" stop-color="#A57617"/>
<stop offset="0.872919" stop-color="#AE8020"/>
<stop offset="1" stop-color="#FFCF69"/>
</linearGradient>
</defs>
</svg>
