<svg width="38" height="40" viewBox="0 0 38 40" fill="none" xmlns="http://www.w3.org/2000/svg">
<path fill-rule="evenodd" clip-rule="evenodd" d="M21.2612 37.6054C21.0126 38.9675 19.8214 40 18.3893 40C16.7769 40 15.4698 38.6911 15.4698 37.0764C15.4698 35.4618 16.7769 34.1528 18.3893 34.1528C19.5201 34.1528 20.5008 34.7966 20.9857 35.7382C28.708 34.6471 33.1065 31.2103 34.1812 25.4277C33.7229 25.6728 33.0926 25.2705 32.2902 24.2208C32.2902 24.2208 29.2301 31.4397 24.3921 32.6253C31.4703 26.6326 26.7333 17.2576 25.6751 15.3141C24.6169 13.3707 24.21 12.5922 23.7148 15.7202C22.5666 20.7204 11.1854 17.7908 9.54114 22.2516C8.44495 25.2254 9.78549 28.7922 13.5628 32.952C9.46906 31.7001 6.68988 28.9958 5.22522 24.8391C3.42989 27.4528 0.0645953 25.3974 0 23.7657C0 21.0199 0 18.3597 0 16.0819C0.00167591 14.7073 0.802328 13.8505 2.40196 13.5113C5.87349 -3.66377 30.5166 -5.11203 34.7886 12.9059C36.7983 12.9059 37.8687 13.7086 38 15.3141L37.8279 22.8061C37.8473 23.9943 37.2742 24.8681 36.1086 25.4277C34.5562 32.218 29.6071 36.2772 21.2612 37.6054ZM5.32898 14.6173C8.23932 8.20742 12.7963 5.13001 19 5.38506C27.501 5.69939 31.2077 11.8897 32.0032 14.6173L32.3712 14.2517C30.1951 6.57176 25.6342 2.73179 18.6884 2.73179C11.7426 2.73179 7.18168 6.57176 5.00561 14.2517L5.32898 14.6173Z" fill="url(#paint0_linear)"/>
<defs>
<linearGradient id="paint0_linear" x1="-2.49827" y1="-88.8889" x2="72.599" y2="-70.1319" gradientUnits="userSpaceOnUse">
<stop stop-color="#FCD17B"/>
<stop offset="0.141409" stop-color="#C3971C"/>
<stop offset="0.281773" stop-color="#B88927"/>
<stop offset="0.441032" stop-color="#E2C280"/>
<stop offset="0.497216" stop-color="#D3B16E"/>
<stop offset="0.575996" stop-color="#BF9955"/>
<stop offset="0.713661" stop-color="#A57617"/>
<stop offset="0.872919" stop-color="#AE8020"/>
<stop offset="1" stop-color="#FFCF69"/>
</linearGradient>
</defs>
</svg>
