<svg width="38" height="40" viewBox="0 0 38 40" fill="none" xmlns="http://www.w3.org/2000/svg">
<path d="M29.8677 9.61914V0H0V33.6739H20.7381V40L27.944 35.6897L35.1639 40V26.261C36.4246 24.9784 37.3107 23.3832 37.7287 21.6441C38.1466 19.905 38.0807 18.0867 37.5381 16.3816C36.9954 14.6764 35.9961 13.1477 34.6459 11.9574C33.2957 10.767 31.6447 9.95907 29.8677 9.61914ZM5.66781 15.4436H14.487V18.2304H5.66781V15.4436ZM16.3684 26.1263H5.66781V23.3395H16.3684V26.1263ZM18.7202 10.3344H5.66781V7.54761H18.7202V10.3344ZM27.944 26.5026C26.5136 26.4998 25.1161 26.0784 23.9283 25.2916C22.7404 24.5047 21.8154 23.3878 21.2701 22.082C20.7249 20.7762 20.5839 19.3401 20.865 17.9552C21.1461 16.5703 21.8367 15.2987 22.8494 14.3013C23.8622 13.3038 25.1516 12.6252 26.5548 12.3512C27.958 12.0772 29.412 12.2202 30.7329 12.762C32.0539 13.3038 33.1826 14.2201 33.9763 15.3951C34.77 16.5702 35.1931 17.9512 35.1922 19.3637C35.1884 21.2591 34.423 23.0756 33.0639 24.4141C31.7049 25.7526 29.8634 26.5038 27.944 26.5026Z" fill="url(#paint0_linear)"/>
<defs>
<linearGradient id="paint0_linear" x1="-2.49827" y1="-88.8889" x2="72.599" y2="-70.1319" gradientUnits="userSpaceOnUse">
<stop stop-color="#FCD17B"/>
<stop offset="0.141409" stop-color="#C3971C"/>
<stop offset="0.281773" stop-color="#B88927"/>
<stop offset="0.441032" stop-color="#E2C280"/>
<stop offset="0.497216" stop-color="#D3B16E"/>
<stop offset="0.575996" stop-color="#BF9955"/>
<stop offset="0.713661" stop-color="#A57617"/>
<stop offset="0.872919" stop-color="#AE8020"/>
<stop offset="1" stop-color="#FFCF69"/>
</linearGradient>
</defs>
</svg>
