<svg width="22" height="39" viewBox="0 0 22 39" fill="none" xmlns="http://www.w3.org/2000/svg">
<path d="M13.1504 34.6855V39H8.68421V34.7278C5.15539 34.3894 2.26065 33.3742 0 31.6822V26.6909C1.07519 27.7061 2.61905 28.6085 4.63158 29.398C6.61654 30.1594 8.61529 30.5401 10.6278 30.5401C12.5852 30.5401 14.1842 30.1453 15.4248 29.3557C16.693 28.538 17.3271 27.4523 17.3271 26.0987C17.3271 25.0271 16.8998 24.1106 16.0451 23.3492C15.7143 23.039 15.218 22.743 14.5564 22.461C13.7569 22.0662 12.4336 21.6009 10.5865 21.0651L10.0075 20.8959C8.43609 20.4447 7.1817 20.0358 6.24436 19.6692C5.5 19.3872 4.53509 18.8937 3.34962 18.1887C1.36466 16.9197 0.37218 14.9317 0.37218 12.2245C0.37218 10.0813 1.10276 8.30477 2.56391 6.8948C4.02506 5.48482 6.06516 4.61063 8.68421 4.27223V0H13.1504V4.27223C15.6316 4.55423 17.9612 5.32972 20.1391 6.5987V11.2093C17.1892 9.37636 14.1291 8.45987 10.9586 8.45987C9.02882 8.45987 7.55389 8.81237 6.53384 9.51735C5.54135 10.1941 5.04511 11.1106 5.04511 12.2668C5.04511 13.987 7.03008 15.4252 11 16.5813C12.6541 17.0325 14.3221 17.5824 16.0038 18.231C17.7957 18.8796 19.2431 19.8807 20.3459 21.2343C21.4486 22.5597 22 24.1529 22 26.0141C22 28.3829 21.1729 30.3286 19.5188 31.8514C17.9198 33.346 15.797 34.2907 13.1504 34.6855Z" fill="url(#paint0_linear)"/>
<defs>
<linearGradient id="paint0_linear" x1="-1.44637" y1="-86.6667" x2="43.7492" y2="-79.9637" gradientUnits="userSpaceOnUse">
<stop stop-color="#FCD17B"/>
<stop offset="0.141409" stop-color="#C3971C"/>
<stop offset="0.281773" stop-color="#B88927"/>
<stop offset="0.441032" stop-color="#E2C280"/>
<stop offset="0.497216" stop-color="#D3B16E"/>
<stop offset="0.575996" stop-color="#BF9955"/>
<stop offset="0.713661" stop-color="#A57617"/>
<stop offset="0.872919" stop-color="#AE8020"/>
<stop offset="1" stop-color="#FFCF69"/>
</linearGradient>
</defs>
</svg>
