<svg width="25" height="40" viewBox="0 0 25 40" fill="none" xmlns="http://www.w3.org/2000/svg">
<path d="M24.0363 3.31317L10.0289 0.031554C9.61452 -0.0525901 9.2001 0.0315541 8.86857 0.283986C8.53703 0.536419 8.37126 0.957139 8.37126 1.37786V3.2711H1.36758C0.621628 3.2711 0 3.90218 0 4.65948V35.33C0 36.0873 0.621628 36.7184 1.36758 36.7184H8.32982V38.6116C8.32982 39.0323 8.53703 39.411 8.82712 39.7055C9.07578 39.9159 9.36587 40 9.65596 40C9.73885 40 9.86317 40 9.94606 39.9579L23.9534 36.6763C24.575 36.5501 24.9895 35.9611 24.9895 35.33V4.65948C25.0723 3.98633 24.6579 3.43939 24.0363 3.31317ZM8.32982 33.9416H2.73516V6.00578H8.32982V33.9416ZM13.1371 21.4462C12.3497 21.4462 11.6866 20.7731 11.6866 19.9737C11.6866 19.1743 12.3497 18.5012 13.1371 18.5012C13.9245 18.5012 14.5875 19.1743 14.5875 19.9737C14.5875 20.7731 13.9245 21.4462 13.1371 21.4462Z" fill="url(#paint0_linear)"/>
<defs>
<linearGradient id="paint0_linear" x1="-1.6436" y1="-88.8889" x2="49.4647" y2="-80.4907" gradientUnits="userSpaceOnUse">
<stop stop-color="#FCD17B"/>
<stop offset="0.141409" stop-color="#C3971C"/>
<stop offset="0.281773" stop-color="#B88927"/>
<stop offset="0.441032" stop-color="#E2C280"/>
<stop offset="0.497216" stop-color="#D3B16E"/>
<stop offset="0.575996" stop-color="#BF9955"/>
<stop offset="0.713661" stop-color="#A57617"/>
<stop offset="0.872919" stop-color="#AE8020"/>
<stop offset="1" stop-color="#FFCF69"/>
</linearGradient>
</defs>
</svg>
