<svg width="19" height="20" viewBox="0 0 19 20" fill="none" xmlns="http://www.w3.org/2000/svg">
<path d="M9.5 5.4082C10.3203 5.4082 11.0996 5.6543 11.8379 6.06445C12.5762 6.47461 13.1504 7.04883 13.5605 7.78711C13.9707 8.52539 14.2168 9.30469 14.2168 10.125C14.2168 10.9863 13.9707 11.7656 13.5605 12.5039C13.1504 13.2422 12.5762 13.8164 11.8379 14.2266C11.0996 14.6367 10.3203 14.8418 9.5 14.8418C8.63867 14.8418 7.85938 14.6367 7.12109 14.2266C6.38281 13.8164 5.80859 13.2422 5.39844 12.5039C4.98828 11.7656 4.7832 10.9863 4.7832 10.125C4.7832 9.30469 4.98828 8.52539 5.39844 7.78711C5.80859 7.04883 6.38281 6.47461 7.12109 6.06445C7.85938 5.6543 8.63867 5.4082 9.5 5.4082ZM9.5 13.2012C10.3203 13.2012 11.0586 12.9141 11.6738 12.2988C12.248 11.7246 12.5762 10.9863 12.5762 10.125C12.5762 9.30469 12.248 8.56641 11.6738 7.95117C11.0586 7.37695 10.3203 7.04883 9.5 7.04883C8.63867 7.04883 7.90039 7.37695 7.32617 7.95117C6.71094 8.56641 6.42383 9.30469 6.42383 10.125C6.42383 10.9863 6.71094 11.7246 7.32617 12.2988C7.90039 12.9141 8.63867 13.2012 9.5 13.2012ZM15.5293 5.20312C15.5293 4.91602 15.4062 4.66992 15.2012 4.42383C14.9551 4.21875 14.709 4.0957 14.4219 4.0957C14.0938 4.0957 13.8477 4.21875 13.6426 4.42383C13.3965 4.66992 13.3145 4.91602 13.3145 5.20312C13.3145 5.53125 13.3965 5.77734 13.6426 5.98242C13.8477 6.22852 14.0938 6.31055 14.4219 6.31055C14.709 6.31055 14.9551 6.22852 15.1602 5.98242C15.3652 5.77734 15.4883 5.53125 15.5293 5.20312ZM18.6465 6.31055C18.6465 7.08984 18.6875 8.36133 18.6875 10.125C18.6875 11.9297 18.6465 13.2012 18.6055 13.9805C18.5645 14.7598 18.4414 15.416 18.2773 15.9902C18.0312 16.6875 17.6211 17.3027 17.1289 17.7949C16.6367 18.2871 16.0215 18.6562 15.3652 18.9023C14.791 19.1074 14.0938 19.2305 13.3145 19.2715C12.5352 19.3125 11.2637 19.3125 9.5 19.3125C7.69531 19.3125 6.42383 19.3125 5.64453 19.2715C4.86523 19.2305 4.20898 19.1074 3.63477 18.8613C2.9375 18.6562 2.32227 18.2871 1.83008 17.7949C1.33789 17.3027 0.96875 16.6875 0.722656 15.9902C0.517578 15.416 0.394531 14.7598 0.353516 13.9805C0.3125 13.2012 0.3125 11.9297 0.3125 10.125C0.3125 8.36133 0.3125 7.08984 0.353516 6.31055C0.394531 5.53125 0.517578 4.83398 0.722656 4.25977C0.96875 3.60352 1.33789 2.98828 1.83008 2.49609C2.32227 2.00391 2.9375 1.59375 3.63477 1.34766C4.20898 1.18359 4.86523 1.06055 5.64453 1.01953C6.42383 0.978516 7.69531 0.9375 9.5 0.9375C11.2637 0.9375 12.5352 0.978516 13.3145 1.01953C14.0938 1.06055 14.791 1.18359 15.3652 1.34766C16.0215 1.59375 16.6367 2.00391 17.1289 2.49609C17.6211 2.98828 18.0312 3.60352 18.2773 4.25977C18.4414 4.83398 18.5645 5.53125 18.6465 6.31055ZM16.6777 15.5391C16.8418 15.0879 16.9238 14.3496 17.0059 13.3242C17.0059 12.75 17.0469 11.8887 17.0469 10.7812V9.46875C17.0469 8.36133 17.0059 7.5 17.0059 6.92578C16.9238 5.90039 16.8418 5.16211 16.6777 4.71094C16.3496 3.89062 15.7344 3.27539 14.9141 2.94727C14.4629 2.7832 13.7246 2.70117 12.6992 2.61914C12.084 2.61914 11.2227 2.57812 10.1562 2.57812H8.84375C7.73633 2.57812 6.875 2.61914 6.30078 2.61914C5.27539 2.70117 4.53711 2.7832 4.08594 2.94727C3.22461 3.27539 2.65039 3.89062 2.32227 4.71094C2.1582 5.16211 2.03516 5.90039 1.99414 6.92578C1.95312 7.54102 1.95312 8.40234 1.95312 9.46875V10.7812C1.95312 11.8887 1.95312 12.75 1.99414 13.3242C2.03516 14.3496 2.1582 15.0879 2.32227 15.5391C2.65039 16.4004 3.26562 16.9746 4.08594 17.3027C4.53711 17.4668 5.27539 17.5898 6.30078 17.6309C6.875 17.6719 7.73633 17.6719 8.84375 17.6719H10.1562C11.2637 17.6719 12.125 17.6719 12.6992 17.6309C13.7246 17.5898 14.4629 17.4668 14.9141 17.3027C15.7344 16.9746 16.3496 16.3594 16.6777 15.5391Z" fill="#F2F2F2"/>
</svg>
