<svg width="19" height="20" viewBox="0 0 19 20" fill="none" xmlns="http://www.w3.org/2000/svg">
<path d="M9.60938 5.4082C10.4297 5.4082 11.209 5.6543 11.9473 6.06445C12.6855 6.47461 13.2598 7.04883 13.6699 7.78711C14.0801 8.52539 14.3262 9.30469 14.3262 10.125C14.3262 10.9863 14.0801 11.7656 13.6699 12.5039C13.2598 13.2422 12.6855 13.8164 11.9473 14.2266C11.209 14.6367 10.4297 14.8418 9.60938 14.8418C8.74805 14.8418 7.96875 14.6367 7.23047 14.2266C6.49219 13.8164 5.91797 13.2422 5.50781 12.5039C5.09766 11.7656 4.89258 10.9863 4.89258 10.125C4.89258 9.30469 5.09766 8.52539 5.50781 7.78711C5.91797 7.04883 6.49219 6.47461 7.23047 6.06445C7.96875 5.6543 8.74805 5.4082 9.60938 5.4082ZM9.60938 13.2012C10.4297 13.2012 11.168 12.9141 11.7832 12.2988C12.3574 11.7246 12.6855 10.9863 12.6855 10.125C12.6855 9.30469 12.3574 8.56641 11.7832 7.95117C11.168 7.37695 10.4297 7.04883 9.60938 7.04883C8.74805 7.04883 8.00977 7.37695 7.43555 7.95117C6.82031 8.56641 6.5332 9.30469 6.5332 10.125C6.5332 10.9863 6.82031 11.7246 7.43555 12.2988C8.00977 12.9141 8.74805 13.2012 9.60938 13.2012ZM15.6387 5.20312C15.6387 4.91602 15.5156 4.66992 15.3105 4.42383C15.0645 4.21875 14.8184 4.0957 14.5312 4.0957C14.2031 4.0957 13.957 4.21875 13.752 4.42383C13.5059 4.66992 13.4238 4.91602 13.4238 5.20312C13.4238 5.53125 13.5059 5.77734 13.752 5.98242C13.957 6.22852 14.2031 6.31055 14.5312 6.31055C14.8184 6.31055 15.0645 6.22852 15.2695 5.98242C15.4746 5.77734 15.5977 5.53125 15.6387 5.20312ZM18.7559 6.31055C18.7559 7.08984 18.7969 8.36133 18.7969 10.125C18.7969 11.9297 18.7559 13.2012 18.7148 13.9805C18.6738 14.7598 18.5508 15.416 18.3867 15.9902C18.1406 16.6875 17.7305 17.3027 17.2383 17.7949C16.7461 18.2871 16.1309 18.6562 15.4746 18.9023C14.9004 19.1074 14.2031 19.2305 13.4238 19.2715C12.6445 19.3125 11.373 19.3125 9.60938 19.3125C7.80469 19.3125 6.5332 19.3125 5.75391 19.2715C4.97461 19.2305 4.31836 19.1074 3.74414 18.8613C3.04688 18.6562 2.43164 18.2871 1.93945 17.7949C1.44727 17.3027 1.07812 16.6875 0.832031 15.9902C0.626953 15.416 0.503906 14.7598 0.462891 13.9805C0.421875 13.2012 0.421875 11.9297 0.421875 10.125C0.421875 8.36133 0.421875 7.08984 0.462891 6.31055C0.503906 5.53125 0.626953 4.83398 0.832031 4.25977C1.07812 3.60352 1.44727 2.98828 1.93945 2.49609C2.43164 2.00391 3.04688 1.59375 3.74414 1.34766C4.31836 1.18359 4.97461 1.06055 5.75391 1.01953C6.5332 0.978516 7.80469 0.9375 9.60938 0.9375C11.373 0.9375 12.6445 0.978516 13.4238 1.01953C14.2031 1.06055 14.9004 1.18359 15.4746 1.34766C16.1309 1.59375 16.7461 2.00391 17.2383 2.49609C17.7305 2.98828 18.1406 3.60352 18.3867 4.25977C18.5508 4.83398 18.6738 5.53125 18.7559 6.31055ZM16.7871 15.5391C16.9512 15.0879 17.0332 14.3496 17.1152 13.3242C17.1152 12.75 17.1562 11.8887 17.1562 10.7812V9.46875C17.1562 8.36133 17.1152 7.5 17.1152 6.92578C17.0332 5.90039 16.9512 5.16211 16.7871 4.71094C16.459 3.89062 15.8438 3.27539 15.0234 2.94727C14.5723 2.7832 13.834 2.70117 12.8086 2.61914C12.1934 2.61914 11.332 2.57812 10.2656 2.57812H8.95312C7.8457 2.57812 6.98438 2.61914 6.41016 2.61914C5.38477 2.70117 4.64648 2.7832 4.19531 2.94727C3.33398 3.27539 2.75977 3.89062 2.43164 4.71094C2.26758 5.16211 2.14453 5.90039 2.10352 6.92578C2.0625 7.54102 2.0625 8.40234 2.0625 9.46875V10.7812C2.0625 11.8887 2.0625 12.75 2.10352 13.3242C2.14453 14.3496 2.26758 15.0879 2.43164 15.5391C2.75977 16.4004 3.375 16.9746 4.19531 17.3027C4.64648 17.4668 5.38477 17.5898 6.41016 17.6309C6.98438 17.6719 7.8457 17.6719 8.95312 17.6719H10.2656C11.373 17.6719 12.2344 17.6719 12.8086 17.6309C13.834 17.5898 14.5723 17.4668 15.0234 17.3027C15.8438 16.9746 16.459 16.3594 16.7871 15.5391Z" fill="url(#paint0_linear)"/>
<defs>
<linearGradient id="paint0_linear" x1="-0.786169" y1="-39.8958" x2="35.2984" y2="-30.4087" gradientUnits="userSpaceOnUse">
<stop stop-color="#FCD17B"/>
<stop offset="0.141409" stop-color="#C3971C"/>
<stop offset="0.281773" stop-color="#B88927"/>
<stop offset="0.441032" stop-color="#E2C280"/>
<stop offset="0.497216" stop-color="#D3B16E"/>
<stop offset="0.575996" stop-color="#BF9955"/>
<stop offset="0.713661" stop-color="#A57617"/>
<stop offset="0.872919" stop-color="#AE8020"/>
<stop offset="1" stop-color="#FFCF69"/>
</linearGradient>
</defs>
</svg>
