<svg width="40" height="35" viewBox="0 0 40 35" fill="none" xmlns="http://www.w3.org/2000/svg">
<path d="M35.2947 0H4.70582C2.10751 0 0 2.08993 0 4.66821V20.9995C0 23.5772 2.10696 25.6666 4.70582 25.6666H7.05984V33.8314C7.05984 34.1315 7.17365 34.4293 7.40406 34.6573C7.8632 35.1131 8.60771 35.1153 9.06852 34.6573L18.8233 25.6666H35.2942C37.8908 25.6666 40 23.5772 40 20.9995V4.66766C40 2.08993 37.8914 0 35.2947 0ZM8.23518 6.99983H27.0596C27.7102 6.99983 28.236 7.52122 28.236 8.16647C28.236 8.81118 27.7102 9.33311 27.0596 9.33311H8.23518C7.58616 9.33311 7.06039 8.81118 7.06039 8.16647C7.05984 7.52122 7.58616 6.99983 8.23518 6.99983ZM17.6479 18.6657H8.23518C7.58616 18.6657 7.06039 18.1432 7.06039 17.5001C7.06039 16.8532 7.58616 16.3335 8.23518 16.3335H17.6479C18.2969 16.3335 18.8238 16.8532 18.8238 17.5001C18.8238 18.1432 18.2969 18.6657 17.6479 18.6657ZM31.7637 14.0002H8.23462C7.5856 14.0002 7.05984 13.4788 7.05984 12.8325C7.05984 12.1883 7.5856 11.6675 8.23462 11.6675H31.7637C32.4161 11.6675 32.9407 12.1883 32.9407 12.8325C32.9413 13.4783 32.4161 14.0002 31.7637 14.0002Z" fill="url(#paint0_linear)"/>
<defs>
<linearGradient id="paint0_linear" x1="-2.62976" y1="-77.7778" x2="74.3972" y2="-54.6332" gradientUnits="userSpaceOnUse">
<stop stop-color="#FCD17B"/>
<stop offset="0.141409" stop-color="#C3971C"/>
<stop offset="0.281773" stop-color="#B88927"/>
<stop offset="0.441032" stop-color="#E2C280"/>
<stop offset="0.497216" stop-color="#D3B16E"/>
<stop offset="0.575996" stop-color="#BF9955"/>
<stop offset="0.713661" stop-color="#A57617"/>
<stop offset="0.872919" stop-color="#AE8020"/>
<stop offset="1" stop-color="#FFCF69"/>
</linearGradient>
</defs>
</svg>
