<svg width="40" height="40" viewBox="0 0 40 40" fill="none" xmlns="http://www.w3.org/2000/svg">
<path d="M19.9791 14.5596C16.0253 14.5596 12.7866 17.7983 12.7866 21.752C12.7866 25.7057 16.0253 28.9444 19.9791 28.9444C23.9328 28.9444 27.1715 25.7057 27.1715 21.752C27.1715 17.7983 23.9328 14.5596 19.9791 14.5596ZM22.7551 20.7425L19.8949 23.9812C19.7687 24.1495 19.5584 24.2336 19.3481 24.2336C19.3481 24.2336 19.3481 24.2336 19.3061 24.2336C19.0958 24.2336 18.9275 24.1495 18.7593 24.0233L17.0348 22.2567C16.7404 21.9623 16.7404 21.4996 17.0348 21.2052C17.3292 20.9108 17.7919 20.9108 18.0863 21.2052L19.264 22.3829L21.5774 19.7331C21.8718 19.4386 22.3345 19.3966 22.6289 19.6489C23.0074 19.9434 23.0074 20.406 22.7551 20.7425Z" fill="url(#paint0_linear)"/>
<path d="M34.9947 16.7889C34.3638 16.7889 33.775 16.9151 33.2282 17.1254L30.5783 12.5407C31.714 11.6154 32.429 10.2695 32.429 8.7132C32.429 5.97923 30.1998 3.75 27.4658 3.75C24.9842 3.75 22.9653 5.55862 22.5868 7.9561H17.3291C16.9506 5.60068 14.9317 3.75 12.4501 3.75C9.71609 3.75 7.48686 5.97923 7.48686 8.7132C7.48686 10.2695 8.20189 11.6154 9.33754 12.5407L6.6877 17.1254C6.1409 16.9151 5.55205 16.7889 4.92114 16.7889C2.22923 16.7889 0 19.0181 0 21.7521C0 24.4861 2.22923 26.7153 4.9632 26.7153C5.59411 26.7153 6.18297 26.5891 6.72976 26.3788L9.3796 30.9635C8.24395 31.8888 7.52892 33.2348 7.52892 34.791C7.52892 37.525 9.75815 39.7542 12.4921 39.7542C14.9737 39.7542 16.9926 37.9456 17.3712 35.5481H22.6288C23.0074 37.9035 25.0263 39.7542 27.5079 39.7542C30.2419 39.7542 32.4711 37.525 32.4711 34.791C32.4711 33.2348 31.756 31.8888 30.6204 30.9635L33.2702 26.3788C33.817 26.5891 34.4059 26.7153 35.0368 26.7153C37.7708 26.7153 40 24.4861 40 21.7521C39.9579 19.0181 37.7287 16.7889 34.9947 16.7889ZM34.9947 19.2705C35.7939 19.2705 36.4669 19.9435 36.4669 20.7426C36.4669 21.5418 35.7939 22.2148 34.9947 22.2148C34.1956 22.2148 33.5226 21.5418 33.5226 20.7426C33.5647 19.9435 34.1956 19.2705 34.9947 19.2705ZM27.4658 6.27366C28.265 6.27366 28.938 6.94664 28.938 7.74579C28.938 8.54495 28.265 9.21793 27.4658 9.21793C26.6667 9.21793 25.9937 8.54495 25.9937 7.74579C25.9937 6.90457 26.6667 6.27366 27.4658 6.27366ZM25.4048 11.1107C25.489 10.3115 26.1619 9.72266 26.9611 9.72266H28.0547C28.8538 9.72266 29.5268 10.3115 29.6109 11.1107L29.653 11.4472C29.0641 11.9098 28.3491 12.2043 27.5079 12.2043C26.7087 12.2043 25.9516 11.9098 25.3628 11.4472L25.4048 11.1107ZM12.4921 6.27366C13.2913 6.27366 13.9642 6.94664 13.9642 7.74579C13.9642 8.54495 13.2913 9.21793 12.4921 9.21793C11.693 9.21793 11.02 8.54495 11.02 7.74579C11.02 6.90457 11.6509 6.27366 12.4921 6.27366ZM10.3891 11.1107C10.4732 10.3115 11.1462 9.72266 11.9453 9.72266H13.0389C13.8381 9.72266 14.511 10.3115 14.5952 11.1107L14.6372 11.4472C14.0484 11.9098 13.3333 12.2043 12.4921 12.2043C11.693 12.2043 10.9359 11.9098 10.347 11.4472L10.3891 11.1107ZM4.9632 19.2705C5.76236 19.2705 6.43533 19.9435 6.43533 20.7426C6.43533 21.5418 5.76236 22.2148 4.9632 22.2148C4.16404 22.2148 3.49106 21.5418 3.49106 20.7426C3.49106 19.9435 4.12198 19.2705 4.9632 19.2705ZM4.9632 25.2011C4.16404 25.2011 3.40694 24.9067 2.81809 24.444L2.86015 24.1075C2.94427 23.3084 3.61724 22.7195 4.4164 22.7195H5.50999C6.30915 22.7195 6.98212 23.3084 7.06625 24.1075L7.10831 24.444C6.47739 24.9067 5.76236 25.2011 4.9632 25.2011ZM12.4921 38.198C11.693 38.198 10.9359 37.9035 10.347 37.4409L10.3891 37.1044C10.4732 36.3052 11.1462 35.7164 11.9453 35.7164H13.0389C13.8381 35.7164 14.511 36.3052 14.5952 37.1044L14.6372 37.4409C14.0063 37.9035 13.2913 38.198 12.4921 38.198ZM11.02 33.7815C11.02 32.9824 11.693 32.3094 12.4921 32.3094C13.2913 32.3094 13.9642 32.9824 13.9642 33.7815C13.9642 34.5807 13.2913 35.2537 12.4921 35.2537C11.6509 35.2537 11.02 34.5807 11.02 33.7815ZM27.4658 38.198C26.6667 38.198 25.9096 37.9035 25.3207 37.4409L25.3628 37.1044C25.4469 36.3052 26.1199 35.7164 26.919 35.7164H28.0126C28.8118 35.7164 29.4848 36.3052 29.5689 37.1044L29.6109 37.4409C29.0221 37.9035 28.307 38.198 27.4658 38.198ZM25.9937 33.7815C25.9937 32.9824 26.6667 32.3094 27.4658 32.3094C28.265 32.3094 28.938 32.9824 28.938 33.7815C28.938 34.5807 28.265 35.2537 27.4658 35.2537C26.6667 35.2537 25.9937 34.5807 25.9937 33.7815ZM29.2744 30.1643C28.7277 29.954 28.0967 29.8278 27.4658 29.8278C24.9842 29.8278 22.9653 31.6364 22.5868 34.0339H17.3291C16.9506 31.6785 14.9317 29.8278 12.4501 29.8278C11.8191 29.8278 11.2303 29.954 10.6414 30.1643L7.99159 25.5797C9.1693 24.6964 9.88433 23.3084 9.88433 21.7521C9.88433 20.1958 9.1693 18.8078 8.03365 17.9246L10.6835 13.3399C11.2303 13.5502 11.8612 13.6764 12.4921 13.6764C14.9737 13.6764 16.9926 11.8678 17.3712 9.47029H22.6288C23.0074 11.8257 25.0263 13.6764 27.5079 13.6764C28.1388 13.6764 28.7277 13.5502 29.3165 13.3399L31.9664 17.9246C30.7886 18.8078 30.0736 20.1958 30.0736 21.7521C30.0736 23.3084 30.7886 24.6964 31.9243 25.5797L29.2744 30.1643ZM34.9947 25.2011C34.1956 25.2011 33.4385 24.9067 32.8496 24.444L32.8917 24.1075C32.9758 23.3084 33.6488 22.7195 34.448 22.7195H35.5415C36.3407 22.7195 37.0137 23.3084 37.0978 24.1075L37.1399 24.444C36.551 24.9067 35.836 25.2011 34.9947 25.2011Z" fill="url(#paint1_linear)"/>
<defs>
<linearGradient id="paint0_linear" x1="11.8409" y1="-17.4068" x2="40.0897" y2="-9.97974" gradientUnits="userSpaceOnUse">
<stop stop-color="#FCD17B"/>
<stop offset="0.141409" stop-color="#C3971C"/>
<stop offset="0.281773" stop-color="#B88927"/>
<stop offset="0.441032" stop-color="#E2C280"/>
<stop offset="0.497216" stop-color="#D3B16E"/>
<stop offset="0.575996" stop-color="#BF9955"/>
<stop offset="0.713661" stop-color="#A57617"/>
<stop offset="0.872919" stop-color="#AE8020"/>
<stop offset="1" stop-color="#FFCF69"/>
</linearGradient>
<linearGradient id="paint1_linear" x1="-2.62976" y1="-76.2594" x2="74.7496" y2="-53.6573" gradientUnits="userSpaceOnUse">
<stop stop-color="#FCD17B"/>
<stop offset="0.141409" stop-color="#C3971C"/>
<stop offset="0.281773" stop-color="#B88927"/>
<stop offset="0.441032" stop-color="#E2C280"/>
<stop offset="0.497216" stop-color="#D3B16E"/>
<stop offset="0.575996" stop-color="#BF9955"/>
<stop offset="0.713661" stop-color="#A57617"/>
<stop offset="0.872919" stop-color="#AE8020"/>
<stop offset="1" stop-color="#FFCF69"/>
</linearGradient>
</defs>
</svg>
