<svg width="86" height="27" viewBox="0 0 86 27" fill="none" xmlns="http://www.w3.org/2000/svg">
<path d="M26.9988 7.47813C26.9978 7.2066 26.9938 6.9351 26.9868 6.66366C26.9705 6.0723 26.9361 5.47549 26.8308 4.89068C26.7305 4.30407 26.5431 3.73573 26.2749 3.20445C25.7317 2.13706 24.8642 1.26923 23.797 0.725556C23.2658 0.457684 22.6976 0.270509 22.1112 0.170206C21.5253 0.0649181 20.9285 0.0300042 20.3371 0.0141838C20.0649 0.00654637 19.7937 0.00327318 19.5221 0.00163659C19.1996 0 18.8772 0 18.5542 0H8.44624C8.12328 0 7.8014 0 7.47898 0.00163659C7.20729 0.00381871 6.93561 0.0070919 6.66392 0.0141838C6.51608 0.0180025 6.36769 0.0234578 6.2193 0.0305497C5.77467 0.0518254 5.32896 0.0911036 4.88979 0.170206C4.45189 0.246393 4.02351 0.369671 3.6121 0.537893C2.92282 0.823206 2.29645 1.24139 1.76868 1.76861C1.34774 2.18928 0.995725 2.67365 0.725585 3.2039C0.450626 3.74398 0.276595 4.29605 0.170212 4.89014C0.0649207 5.47549 0.0300054 6.0723 0.0141844 6.66311C0.00654663 6.93587 0.00327332 7.207 0.00163666 7.47813C0 7.80109 0 8.1235 0 8.4459V18.5535C0 18.8764 0 19.1989 0.00163666 19.5213C0.00381887 19.7929 0.00709218 20.0646 0.0141844 20.3357C0.0305509 20.9276 0.0649207 21.5245 0.170212 22.1087C0.270363 22.6957 0.457549 23.2644 0.725585 23.796C1.26891 24.8637 2.13684 25.7316 3.20458 26.2749C3.74413 26.5493 4.29623 26.7234 4.89033 26.8303C5.47516 26.9356 6.07255 26.9705 6.66392 26.9863C6.93561 26.9934 7.20729 26.9967 7.47898 26.9983C7.80085 27.0005 8.12328 26.9999 8.44624 26.9999H18.5542C18.8761 26.9999 19.1991 27.0005 19.5215 26.9983C19.7932 26.9967 20.0643 26.9934 20.336 26.9863C20.9279 26.9699 21.5253 26.9356 22.1102 26.8303C22.6966 26.73 23.2647 26.5428 23.7959 26.2749C24.8634 25.7314 25.7311 24.8636 26.2744 23.796C26.5493 23.256 26.7233 22.7033 26.8303 22.1098C26.9356 21.525 26.9705 20.9282 26.9863 20.3363C26.9934 20.0652 26.9967 19.7935 26.9983 19.5218C27.0005 19.1994 26.9999 18.877 26.9999 18.554V8.4459C26.9999 8.1235 26.9999 7.80109 26.9983 7.47813H26.9988Z" fill="url(#paint0_linear)"/>
<path d="M20.4158 16.663L20.4142 16.6614C20.4417 16.5607 20.4702 16.4611 20.4951 16.3582C21.5396 11.952 18.9899 6.74257 14.6763 4C16.5669 6.71349 17.4024 9.99984 16.6594 12.8738C16.5933 13.1306 16.514 13.3766 16.426 13.6157C16.3031 13.5319 16.1773 13.453 16.0487 13.3793C16.0487 13.3793 11.757 10.5743 7.10617 5.61194C6.98413 5.48165 9.58615 9.54974 12.5395 12.8533C11.1483 12.0269 7.27042 9.03935 4.81587 6.66073C5.11741 7.19374 5.47642 7.70629 5.87051 8.19999C7.92029 10.9523 10.594 14.3484 13.7966 16.9564C11.5464 18.4144 8.36675 18.5274 5.20081 16.958C4.42571 16.5726 3.68852 16.1069 3 15.5679C4.41566 17.9484 6.47778 19.8204 8.91594 20.9383C11.912 22.3015 14.8909 22.2089 17.1095 20.961L17.1079 20.9636C17.1181 20.9566 17.1308 20.9496 17.1415 20.9421C17.2325 20.891 17.323 20.8377 17.411 20.7822C18.4773 20.1964 20.5831 19.6021 21.713 21.9301C21.9901 22.5002 22.5784 19.4804 20.4163 16.6635L20.4158 16.663Z" fill="#171717"/>
<path d="M36.4387 17.6099C36.6494 19.5336 38.4321 20.795 40.9079 20.795C43.26 20.795 44.9562 19.5342 44.9562 17.7881C44.9562 16.2847 43.9285 15.3668 41.5638 14.7555L39.2737 14.1559C35.9809 13.3154 34.4954 11.7856 34.4954 9.26287C34.4954 6.15345 37.1322 4 40.8834 4C44.5224 4 47.1097 6.16634 47.1968 9.28864H44.7826C44.5969 7.37671 43.0864 6.20444 40.8213 6.20444C38.5802 6.20444 37.0206 7.3896 37.0206 9.12222C37.0206 10.4727 37.9863 11.2762 40.363 11.9005L42.2698 12.4104C45.9589 13.3406 47.469 14.8188 47.469 17.4822C47.469 20.8723 44.8566 23 40.6972 23C36.835 23 34.1981 20.8847 34 17.6094H36.4387V17.6099ZM62.8029 22.694H60.3767L57.5417 12.5253H57.4927L54.6697 22.694H52.244L48.654 9.37718H51.0056L53.5064 20.0688H53.5559L56.3784 9.37718H58.6565L61.5035 20.0688H61.553L64.0538 9.37718H66.3809L62.8029 22.694ZM67.947 5.7965C67.947 4.99407 68.5915 4.34406 69.3711 4.34406C70.1636 4.34406 70.8071 4.99407 70.8071 5.7965C70.8071 6.59949 70.1636 7.26183 69.3711 7.26183C68.9942 7.25963 68.6334 7.10454 68.3669 6.83021C68.1004 6.55588 67.9497 6.18445 67.9476 5.7965H67.947ZM68.1953 9.37718H70.5594V22.694H68.1953V9.37718ZM86 11.3401V9.37718H83.4998V6.19155H81.1471V9.37718H76.6279V8.20491C76.6398 7.01976 77.0851 6.52272 78.1504 6.52272C78.4966 6.52272 78.8434 6.56139 79.1281 6.61238V4.69989C78.7146 4.63331 78.2968 4.59922 77.8782 4.5979C75.3524 4.5979 74.2877 5.68163 74.2877 8.16625V9.37662H72.4804V11.3395H74.2877V22.6935H76.6398V11.3401H81.1476V19.2019C81.1476 21.7762 82.1002 22.7697 84.5765 22.7697C85.1089 22.7697 85.7153 22.7316 85.988 22.6683V20.6801C85.6921 20.7178 85.3945 20.7391 85.0964 20.744C83.9946 20.744 83.4998 20.2089 83.4998 19.0108V11.3401H86Z" fill="url(#paint1_linear)"/>
<defs>
<linearGradient id="paint0_linear" x1="-1.77509" y1="-60" x2="51.2471" y2="-46.0597" gradientUnits="userSpaceOnUse">
<stop stop-color="#FCD17B"/>
<stop offset="0.141409" stop-color="#C3971C"/>
<stop offset="0.281773" stop-color="#B88927"/>
<stop offset="0.441032" stop-color="#E2C280"/>
<stop offset="0.497216" stop-color="#D3B16E"/>
<stop offset="0.575996" stop-color="#BF9955"/>
<stop offset="0.713661" stop-color="#A57617"/>
<stop offset="0.872919" stop-color="#AE8020"/>
<stop offset="1" stop-color="#FFCF69"/>
</linearGradient>
<linearGradient id="paint1_linear" x1="30.5813" y1="-38.2222" x2="102.513" y2="13.5369" gradientUnits="userSpaceOnUse">
<stop stop-color="#FCD17B"/>
<stop offset="0.141409" stop-color="#C3971C"/>
<stop offset="0.281773" stop-color="#B88927"/>
<stop offset="0.441032" stop-color="#E2C280"/>
<stop offset="0.497216" stop-color="#D3B16E"/>
<stop offset="0.575996" stop-color="#BF9955"/>
<stop offset="0.713661" stop-color="#A57617"/>
<stop offset="0.872919" stop-color="#AE8020"/>
<stop offset="1" stop-color="#FFCF69"/>
</linearGradient>
</defs>
</svg>
