<svg width="40" height="40" viewBox="0 0 40 40" fill="none" xmlns="http://www.w3.org/2000/svg">
<path fill-rule="evenodd" clip-rule="evenodd" d="M33.9345 38.75H6.06574C2.72654 38.75 0 36.0251 0 32.6879V12.6418C0 9.30485 2.72654 6.57993 6.06549 6.57993H12.1913V4.26532C12.1913 1.53282 12.4741 1.25 15.2085 1.25H24.7913C27.5257 1.25 27.8087 1.53258 27.8087 4.26532V6.57993H33.9345C37.2737 6.57993 40 9.30485 40 12.6418V32.6879C40.0002 36.0251 37.2737 38.75 33.9345 38.75ZM36.9528 18.7032L22.6953 22.8503C22.6953 22.2725 22.6953 21.6946 22.6953 21.1165C22.653 20.5953 22.4228 20.2622 22.0049 20.1161C20.6647 20.1161 19.3243 20.1161 17.9841 20.1161C17.5645 20.2773 17.3326 20.6266 17.2886 21.1629V22.8501L3.04765 18.7394V32.6881C3.04765 34.3438 4.40885 35.7046 6.06574 35.7046H33.9347C35.5916 35.7046 36.9531 34.344 36.9531 32.6881V18.7032H36.9528ZM15.1022 6.57993H24.8976V4.26532C24.8976 4.20182 24.8546 4.15883 24.7911 4.15883H15.2085C15.1452 4.15883 15.1022 4.20182 15.1022 4.26532V6.57993ZM21.402 25.9912C21.7566 25.9912 22.0464 25.7013 22.0464 25.3471V21.3788C22.0464 21.0249 21.7566 20.7348 21.402 20.7348H18.598C18.2436 20.7348 17.9536 21.0247 17.9536 21.3788V25.3474C17.9536 25.7015 18.2436 25.9914 18.598 25.9914H21.402V25.9912Z" fill="url(#paint0_linear)"/>
<defs>
<linearGradient id="paint0_linear" x1="-2.62976" y1="-82.0833" x2="75.2281" y2="-60.2487" gradientUnits="userSpaceOnUse">
<stop stop-color="#FCD17B"/>
<stop offset="0.141409" stop-color="#C3971C"/>
<stop offset="0.281773" stop-color="#B88927"/>
<stop offset="0.441032" stop-color="#E2C280"/>
<stop offset="0.497216" stop-color="#D3B16E"/>
<stop offset="0.575996" stop-color="#BF9955"/>
<stop offset="0.713661" stop-color="#A57617"/>
<stop offset="0.872919" stop-color="#AE8020"/>
<stop offset="1" stop-color="#FFCF69"/>
</linearGradient>
</defs>
</svg>
